<?xml version="1.0" encoding="UTF-8"?>
<svg id="_Слой_1" data-name="Слой_1" xmlns="http://www.w3.org/2000/svg" version="1.1" xmlns:xlink="http://www.w3.org/1999/xlink" viewBox="0 0 159.1 159.1">
  <!-- Generator: Adobe Illustrator 29.2.1, SVG Export Plug-In . SVG Version: 2.1.0 Build 116)  -->
  <defs>
    <style>
      .st0, .st1, .st2 {
        fill: #fff;
      }

      .st1 {
        fill-rule: evenodd;
      }

      .st3 {
        clip-path: url(#clippath-1);
      }

      .st2 {
        clip-rule: evenodd;
      }

      .st4 {
        clip-path: url(#clippath);
      }
    </style>
    <clipPath id="clippath">
      <path class="st2" d="M85.8,70.1c0,0-.1.1-.2.2-2.9,2.9-5.2,6.6-7,11.1-1.1,2.6-1.9,5.4-2.6,8.6-.6,2.8-1,5.9-1.2,9.5,0,.4,0,.7,0,1.2,0,0,0,0,0,0,0,0,0,0,0,0-1.2-1.6-2.9-4.5-3.1-11.3-.1-2.8.2-5.3.9-7.5,1.3-3.9,3.4-7,6.5-9.1,2.1-1.5,4.2-2.4,6.5-2.7,0,0,.2,0,.4,0Z"/>
    </clipPath>
    <clipPath id="clippath-1">
      <path class="st2" d="M70,47.9c-3.4-3.1-7.7-7.2-7.9-15.4v-.7s.4.5.4.5c0,0,.1.1.2.2,2.2,2.7,4.7,5,7.2,7,.8.6,1.6,1.2,2.4,1.8.9.7,1.9,1.3,2.8,2,1.3.9,2.6,1.8,3.9,2.8,1.4,1.1,3,2.3,4.6,4.1.6.7,2.3,3.1,2.4,3.3,0,0,0,0,0,0,.8-1.8,1.9-3.8,3.7-5.2h.2c0-.1.1,0,.1,0,.3.3.6.7.9,1,0,0,.2.2.3.3-.4-1.6-.4-4.1-.4-5.4,0-.4,0-.9.2-1.3,0,0,.1.2.3.4.1.2.3.5.4.7.7,1.1,1.9,3.1,2.7,4,.8,1,1.4,1.9,1.9,2.8,1,1.7,1.3,3.5,1,5.2-.2,1.1-1.1,3.9-1.1,3.9,0,0-1-3.3-2-4.5-.4-.5-.8-.7-1.1-.6-.3,0-.6.5-.8,1.2-.2.7-.1,1.4.2,2.2.3.8.6,1.6,1,2.5,2,4.6,1.9,9.2-.5,14.1-.9,1.8-2.1,3.5-3.5,4.9-1.4,1.4-3,3-4.5,4.5-1,1-1.8,2.3-2.5,3.8-.5,1-.6,2.2-.8,3.4,0,.2-.2,1.5-.2,1.5,0,0-.8-2.1-.9-2.5-1.2-4.8-.5-9,2.2-12.5.6-.8,1.3-1.7,2-2.5.2-.2.4-.5.6-.7,1.4-1.7,2.2-3.4,2.6-5.3,0-.5.5-3.7-3.9-2.6-.6.1-1.1.3-1.7.4-1,.3-2,.5-3,.7-3.3.6-6.2.3-8.7-1.1-2.7-1.4-4.6-3.6-5.7-6.7-.2-.5-.3-1.2-.3-1.2,0,0,.9.3,2.4,1,1.5.6,3.6,1.5,4.8,1.9.7.2,1.5.4,2.3.5-3.3-1.9-6.7-4-9.5-7.3-2.2-2.7-3.7-5.7-4.4-8.9-.3-1.2-.5-3.4-.5-4.8,0-.4,0-.8.1-1.2h0s.3.3.3.3c.7.7,1.3,1.3,2,2,1.8,1.8,3.5,3.6,5.5,5.1,2.1,1.6,4.3,3.1,6.5,4.5-.3-.3-.6-.6-.9-.9-1.1-1-2.2-2.1-3.4-3.1Z"/>
    </clipPath>
  </defs>
  <path class="st0" d="M15.3,60.1l.7-2c.3-.9.4-1.7.4-2.5,0-.8-.3-1.5-.7-2.1-.4-.6-.9-1.1-1.5-1.6-.6-.4-1.3-.8-2.1-1.1-1.7-.6-3.3-.7-4.6-.2-1.4.5-2.4,1.7-3,3.5l-.6,1.8,11.5,4.2ZM15.3,62.2l-12.8-4.7,1.4-3.9c.8-2.2,2-3.7,3.6-4.6,1.6-.9,3.4-1,5.4-.2,1.9.7,3.2,1.9,3.9,3.6.7,1.7.7,3.7,0,5.9l-1.4,3.9Z"/>
  <path class="st0" d="M18.3,38.5c1.6,1.2,3.2,1.9,4.6,2,1.5.1,2.7-.4,3.6-1.6.8-1.1,1-2.3.6-3.6-.4-1.3-1.3-2.5-2.7-3.6-1.5-1.2-3.1-1.8-4.6-2-1.5-.1-2.7.4-3.6,1.6-.8,1.1-1,2.3-.6,3.6.4,1.3,1.3,2.5,2.6,3.5ZM17.4,40.5c-1.6-1.3-2.6-2.8-2.9-4.6-.3-1.8.2-3.5,1.3-5,1.1-1.5,2.6-2.4,4.5-2.6,1.8-.2,3.5.3,5.1,1.5,1.7,1.3,2.7,2.8,2.9,4.6.3,1.8-.2,3.4-1.4,5-1.2,1.5-2.7,2.4-4.4,2.6-1.8.2-3.5-.3-5.2-1.6Z"/>
  <path class="st0" d="M38.2,11l5.1,7.3c.9,1.3,1.2,2.6.9,3.8-.3,1.3-1.1,2.4-2.6,3.4-1.5,1-2.9,1.5-4.2,1.3-1.3-.2-2.4-1-3.4-2.3l-5-7.1,1.6-1.1,5.1,7.3c.8,1.1,1.7,1.8,2.7,2,1,.2,2-.1,3-.8,1.1-.8,1.7-1.7,1.9-2.8.1-1.1-.1-2.1-.8-3.1l-5.1-7.2.7-.5Z"/>
  <path class="st0" d="M55.5,10.7l-1.6.5,1.9,5.7,1.7-.6c2.5-.8,3.5-2.2,2.9-4.1-.3-.9-.9-1.5-1.7-1.7-.8-.3-1.9-.2-3.2.2ZM53.7,10.6l1.6-.5c2.3-.8,3.1-2,2.6-3.8-.3-.8-.8-1.4-1.5-1.7-.7-.3-1.6-.3-2.7.1l-1.7.6,1.8,5.3ZM49.8,5.3l3.9-1.3c1.6-.5,3-.7,4-.4,1.1.3,1.7,1,2.1,2,.2.7.2,1.4-.1,2.1s-.9,1.3-1.6,1.7h0c2.4-.3,3.8.3,4.4,2,.4,1.1.2,2.1-.5,3.1-.7.9-1.9,1.7-3.8,2.3l-4.1,1.4-4.3-12.9Z"/>
  <polygon class="st0" points="73 0 73.8 12.9 80.3 12.3 80.2 13.2 71.9 13.7 71 .1 73 0"/>
  <polygon class="st0" points="92.3 1.5 91.2 7.2 95.7 8.1 95.6 8.7 91.1 7.9 90.1 13.5 96.7 14.7 96.5 15.4 88 13.8 90.5 .4 98.8 2 98.7 2.6 92.3 1.5"/>
  <polygon class="st0" points="119.2 11.1 112.8 22.4 111.1 21.4 117.4 10.1 113.9 8.2 114.3 7.5 123 12.4 122.6 13.1 119.2 11.1"/>
  <path class="st0" d="M132.8,21l-4.5,4.7.9.9c.9.9,1.8,1.3,2.7,1.3.9,0,1.7-.4,2.3-1,.6-.6.9-1.4.9-2.2,0-.8-.4-1.7-1.3-2.5l-1.1-1ZM128.2,32.5l.5-2.1c.4-1.8.2-3.1-.5-3.8l-.4-.4-4,4.1-1.4-1.4,9.5-9.8,2.7,2.6c1.2,1.2,1.9,2.3,2,3.4.2,1.1-.1,2.1-.9,2.9-.6.6-1.4,1-2.3,1.2-.9.1-2-.2-3-.9.4.8.4,1.7.2,2.8l-.5,2.5c-.1.7-.2,1.2-.1,1.5,0,.4.2.7.5,1h0c0,0-.4.3-.4.3-.3-.2-.6-.4-.9-.7-.9-.8-1.1-1.9-.9-3.2Z"/>
  <polygon class="st0" points="146.6 37.5 141.6 40.5 144 44.4 143.4 44.8 141 40.9 136.1 43.8 139.6 49.6 139 49.9 134.5 42.4 146.2 35.4 150.5 42.7 150 43.1 146.6 37.5"/>
  <polygon class="st0" points="155 55.6 149.4 57.2 150.7 61.6 150 61.8 148.7 57.4 143.3 59 145.2 65.5 144.5 65.6 142 57.3 155.1 53.5 157.5 61.6 156.9 61.8 155 55.6"/>
  <polygon class="st0" points="9.6 89.1 13.3 87 13.6 89 4.2 94.2 14.5 96 14.6 96.9 1 94.4 1 93.9 8.7 89.6 0 87.3 0 86.8 12.3 79.9 12.6 81.9 3 87.3 9.6 89.1"/>
  <polygon class="st0" points="22.1 113.9 10.4 119.7 9.6 118 15.2 115.2 12.2 109.2 6.6 112 5.8 110.3 17.5 104.5 18.3 106.2 12.8 108.9 15.8 114.9 21.3 112.2 22.1 113.9"/>
  <polygon class="st0" points="28.5 122.5 18.4 130.8 17.3 129.5 27.4 121.2 28.5 122.5"/>
  <polygon class="st0" points="37.5 132.2 29.6 141.8 28.1 140.6 36 131 33 128.6 33.5 128.1 40.9 134.1 40.4 134.7 37.5 132.2"/>
  <polygon class="st0" points="49 139.7 46.6 144.7 50.5 146.6 50.2 147.2 46.3 145.3 43.9 150.2 49.7 153 49.4 153.6 41.9 150 47.5 138.2 54.8 141.7 54.6 142.3 49 139.7"/>
  <path class="st0" d="M69.2,153.1h1.1c1.2.3,2.1,0,2.8-.6.7-.6,1.1-1.4,1.2-2.3.1-.9-.1-1.8-.6-2.5-.5-.7-1.4-1.1-2.6-1.3h-1.1c0-.1-.8,6.7-.8,6.7ZM69.1,153.8l-.6,4.8-1.9-.2,1.5-13,3.3.4c1.7.2,3,.7,3.8,1.5.8.8,1.2,1.8,1,3,0,.5-.2,1-.5,1.5-.3.5-.6.9-1.1,1.2-.5.4-1.1.6-1.8.8-.8.2-1.6.2-2.6,0h-1.2Z"/>
  <polygon class="st0" points="95.3 144.6 97.3 157.5 95.4 157.8 94.4 151.6 87.8 152.7 88.8 158.8 86.9 159.1 84.9 146.2 86.8 145.9 87.7 152 94.3 151 93.4 144.9 95.3 144.6"/>
  <path class="st0" d="M108.1,146.7c.9,1.7,1.9,3,3.1,3.7,1.2.7,2.5.8,3.8.1,1.2-.6,1.8-1.5,2-2.8.2-1.3,0-2.7-.8-4.2-.8-1.7-1.9-2.9-3.1-3.6-1.2-.7-2.5-.8-3.8-.1-1.2.6-1.8,1.5-2,2.8-.2,1.3,0,2.7.8,4.1ZM106.5,148c-.9-1.8-1.1-3.5-.6-5.2.5-1.7,1.6-2.9,3.2-3.7,1.6-.8,3.3-.9,4.9-.3,1.7.6,2.9,1.7,3.8,3.4.9,1.8,1.1,3.6.6,5.2-.5,1.6-1.6,2.9-3.3,3.7-1.7.8-3.3,1-4.9.4-1.6-.6-2.9-1.7-3.8-3.5Z"/>
  <polygon class="st0" points="123.7 130.4 127.5 134.5 130.7 131.6 131.2 132 127.9 135 131.6 139 136.4 134.7 136.8 135.2 130.7 140.8 121.8 131.2 127.8 125.7 128.3 126.2 123.7 130.4"/>
  <polygon class="st0" points="149.5 118.1 135.7 119.7 144.8 125.4 144.4 126.1 134.3 119.8 132.8 120 134.1 118 146.6 116.5 138.2 111.3 138.7 110.6 149.8 117.5 149.5 118.1"/>
  <rect class="st0" x="147.7" y="97.1" width="1.7" height="13" transform="translate(2 210) rotate(-70.9)"/>
  <polygon class="st0" points="146.1 83.5 151.6 88.2 159.1 84.7 158.9 86.8 152.6 89.7 157.9 94.2 157.8 95.2 151.9 90 144.9 93.2 145.1 91.2 150.8 88.6 146 84.5 146.1 83.5"/>
  <polygon class="st0" points="123.6 118.7 123.6 120.2 116.9 120.2 116.9 110.2 123.4 110.2 123.4 111.6 118.5 111.6 118.5 114.2 122.2 114.2 122.2 115.6 118.5 115.6 118.5 118.7 123.6 118.7"/>
  <path class="st0" d="M114.5,117.4c0,.6-.1,1.1-.4,1.5-.3.4-.7.8-1.2,1-.5.2-1.1.4-1.7.4s-1.5-.2-2.2-.6c-.7-.4-1.2-.9-1.6-1.6l1.1-.9c.3.5.7.9,1.1,1.2.4.3.9.4,1.5.4s.9-.1,1.2-.4c.3-.3.5-.6.5-1s-.1-.6-.3-.8c-.2-.2-.6-.4-1.1-.7l-1.1-.5c-.7-.3-1.3-.7-1.7-1.1s-.6-1-.6-1.6.1-1,.4-1.4c.3-.4.7-.7,1.1-1,.5-.2,1-.3,1.6-.3s1.3.2,1.9.5c.6.3,1,.8,1.3,1.3l-1.1.9c-.3-.4-.6-.7-.9-.9-.4-.2-.7-.3-1.2-.3s-.8.1-1.1.3c-.3.2-.4.5-.4.9s0,.4.2.6c.1.2.3.3.4.4.2.1.4.2.8.4l1.1.5c.8.4,1.4.8,1.8,1.2.4.4.6,1,.6,1.6Z"/>
  <path class="st0" d="M105.4,110.2v5.9c0,.9-.2,1.6-.5,2.2-.4.6-.8,1.1-1.5,1.4-.6.3-1.3.5-2.1.5s-1.5-.2-2.1-.5c-.6-.3-1.1-.8-1.5-1.4-.4-.6-.5-1.4-.5-2.2v-5.9h1.6v6c0,.8.2,1.5.7,1.9.5.5,1.1.7,1.8.7s1.3-.2,1.8-.7c.5-.4.7-1.1.7-1.9v-6h1.6Z"/>
  <path class="st0" d="M93.4,115.2c0-.7-.2-1.3-.5-1.9-.3-.6-.7-1-1.3-1.3-.5-.3-1.1-.5-1.8-.5s-1.3.2-1.8.5c-.5.3-1,.8-1.3,1.3-.3.6-.5,1.2-.5,1.9s.2,1.3.5,1.9c.3.6.7,1,1.3,1.3.5.3,1.2.5,1.8.5s1.3-.2,1.8-.5c.5-.3,1-.8,1.3-1.3.3-.6.5-1.2.5-1.9ZM94.3,112.6c.5.8.7,1.7.7,2.6s-.2,1.8-.7,2.6c-.5.8-1.1,1.4-1.9,1.9-.8.5-1.7.7-2.6.7s-1.8-.2-2.6-.7c-.8-.5-1.4-1.1-1.9-1.9s-.7-1.7-.7-2.6.2-1.8.7-2.6c.5-.8,1.1-1.4,1.9-1.9.8-.5,1.7-.7,2.6-.7s1.8.2,2.6.7c.8.4,1.4,1.1,1.9,1.9Z"/>
  <path class="st0" d="M82.7,118.1l1.5,2h-1.8l-1.3-1.7-1.6-2.1h-1.4v-1.5h2c.3,0,.6-.1.9-.4h0c.3-.3.5-.7.5-1.2s-.1-.8-.4-1.1c0,0,0,0-.1-.1-.3-.3-.7-.5-1.3-.5h-2v2.7h-1.6v-4.1h3.6c.5,0,1,0,1.4.2.1,0,.3.1.4.2.5.3.9.6,1.2,1.1,0,0,0,0,0,0,.3.5.4,1,.4,1.6s-.1,1.1-.4,1.6c0,0,0,.1-.1.2-.3.5-.8.9-1.4,1.1l1.5,2.1Z"/>
  <rect class="st0" x="76.1" y="116.8" width="1.6" height="3.4"/>
  <rect class="st0" x="76.1" y="114.8" width="1.5" height="1.6"/>
  <polygon class="st0" points="75.6 114.8 75.6 116.3 72.7 116.3 72.7 120.2 71.2 120.2 71.2 110.2 72.7 110.2 72.7 114.2 72.7 114.8 75.6 114.8"/>
  <polygon class="st0" points="69.2 118.7 69.2 120.2 62.4 120.2 62.4 110.2 69 110.2 69 111.6 64 111.6 64 114.2 67.8 114.2 67.8 115.6 64 115.6 64 118.7 69.2 118.7"/>
  <path class="st0" d="M58.5,115.2c0-.7-.2-1.3-.5-1.8-.3-.5-.7-.9-1.3-1.2-.6-.3-1.2-.4-2-.4h-1.5v7.1h1.5c.8,0,1.4-.2,2-.5.6-.3,1-.7,1.3-1.3.3-.5.5-1.2.5-1.8ZM59.5,112.6c.4.7.7,1.6.7,2.6s-.2,1.8-.7,2.6c-.4.8-1.1,1.3-1.9,1.8s-1.8.6-2.8.6h-3.1v-10h3.1c1.1,0,2,.2,2.9.6.8.4,1.4,1,1.9,1.7Z"/>
  <rect class="st0" x="47.2" y="110.2" width="1.6" height="10"/>
  <path class="st0" d="M44.9,112.3l-1.2.9c-.4-.6-.8-1-1.3-1.3-.5-.3-1.1-.4-1.7-.4s-1.3.2-1.8.5c-.5.3-1,.8-1.3,1.3-.3.6-.5,1.2-.5,1.9s.2,1.3.5,1.9c.3.6.7,1,1.3,1.3.5.3,1.2.5,1.8.5s1.2-.1,1.7-.4c.5-.3.9-.7,1.3-1.3l1.2.9c-.4.7-1,1.3-1.8,1.7-.8.4-1.6.6-2.5.6s-1.8-.2-2.6-.7c-.8-.5-1.4-1.1-1.9-1.9-.5-.8-.7-1.7-.7-2.6s.2-1.8.7-2.6c.5-.8,1.1-1.4,1.9-1.9.8-.5,1.7-.7,2.6-.7s1.7.2,2.5.6c.8.4,1.3,1,1.8,1.7Z"/>
  <g>
    <path class="st1" d="M85.8,70.1c0,0-.1.1-.2.2-2.9,2.9-5.2,6.6-7,11.1-1.1,2.6-1.9,5.4-2.6,8.6-.6,2.8-1,5.9-1.2,9.5,0,.4,0,.7,0,1.2,0,0,0,0,0,0,0,0,0,0,0,0-1.2-1.6-2.9-4.5-3.1-11.3-.1-2.8.2-5.3.9-7.5,1.3-3.9,3.4-7,6.5-9.1,2.1-1.5,4.2-2.4,6.5-2.7,0,0,.2,0,.4,0Z"/>
    <g class="st4">
      <path class="st0" d="M85.5,70.9c0,0,.2,0,.3,0v-1.5c-.3,0-.4,0-.5,0l.2,1.5ZM79.3,73.4c2.1-1.5,4-2.3,6.2-2.5l-.2-1.5c-2.4.3-4.6,1.2-6.9,2.8l.9,1.2ZM73.1,82.2c1.2-3.8,3.3-6.7,6.2-8.8l-.9-1.2c-3.2,2.3-5.5,5.5-6.8,9.5l1.4.5ZM72.2,89.4c-.1-2.8.2-5.1.9-7.2l-1.4-.5c-.7,2.3-1,4.8-.9,7.7h1.5ZM75.2,100.3c-1.1-1.5-2.7-4.3-3-10.9h-1.5c.3,6.9,1.9,10,3.3,11.8l1.2-.9ZM75.2,100.4s0,0,0,0c0,0,0,0,0,0,0,0,0,0,0,0,0,0,0,0,0,0l-1.2.8s0,0,0,0c0,0,0,0,0,0,0,0,0,0,0,0,0,0,0,0,0,0l1.2-.8ZM73.9,100.6s0,0,0,0h1.5c0,0,0,0,0,0h-1.5ZM74,99.5c0,.4,0,.7,0,1.1h1.5c0-.3,0-.7,0-1.1h-1.5ZM75.2,89.9c-.6,2.9-1,6-1.2,9.6h1.5c.2-3.4.6-6.5,1.2-9.3l-1.4-.3ZM77.8,81.2c-1.1,2.6-1.9,5.5-2.6,8.7l1.4.3c.7-3.2,1.5-5.9,2.5-8.5l-1.4-.6ZM85,69.8c-2.9,3-5.3,6.7-7.2,11.4l1.4.6c1.9-4.5,4.1-8,6.9-10.9l-1.1-1ZM85.2,69.6c0,0-.1.1-.2.2l1.1,1c0-.1.2-.2.2-.3l-1.1-1ZM85.4,70.1v.7c0,0,0,0,0,0v-.7ZM78.9,72.8l.4.6h0l-.4-.6ZM72.4,81.9l-.7-.2h0s.7.2.7.2ZM71.5,89.4h.7s-.7,0-.7,0ZM74.6,100.7l.6-.4h0s0,0,0,0l-.6.4ZM74.6,100.8l-.6.4,1.2,1.8.2-2.1h-.7ZM74.6,100.7h-.7c0,0,0,0,0,0h.7ZM74.7,99.5h-.7s0,0,0,0h.7ZM75.9,90l-.7-.2h0s.7.2.7.2ZM78.5,81.4l.7.3h0l-.7-.3ZM85.6,70.3l.5.5h0s0,0,0,0l-.5-.5ZM85.8,70.1l.6.5,1.2-1.4h-1.8c0,.1,0,.9,0,.9Z"/>
    </g>
  </g>
  <g>
    <path class="st1" d="M70,47.9c-3.4-3.1-7.7-7.2-7.9-15.4v-.7s.4.5.4.5c0,0,.1.1.2.2,2.2,2.7,4.7,5,7.2,7,.8.6,1.6,1.2,2.4,1.8.9.7,1.9,1.3,2.8,2,1.3.9,2.6,1.8,3.9,2.8,1.4,1.1,3,2.3,4.6,4.1.6.7,2.3,3.1,2.4,3.3,0,0,0,0,0,0,.8-1.8,1.9-3.8,3.7-5.2h.2c0-.1.1,0,.1,0,.3.3.6.7.9,1,0,0,.2.2.3.3-.4-1.6-.4-4.1-.4-5.4,0-.4,0-.9.2-1.3,0,0,.1.2.3.4.1.2.3.5.4.7.7,1.1,1.9,3.1,2.7,4,.8,1,1.4,1.9,1.9,2.8,1,1.7,1.3,3.5,1,5.2-.2,1.1-1.1,3.9-1.1,3.9,0,0-1-3.3-2-4.5-.4-.5-.8-.7-1.1-.6-.3,0-.6.5-.8,1.2-.2.7-.1,1.4.2,2.2.3.8.6,1.6,1,2.5,2,4.6,1.9,9.2-.5,14.1-.9,1.8-2.1,3.5-3.5,4.9-1.4,1.4-3,3-4.5,4.5-1,1-1.8,2.3-2.5,3.8-.5,1-.6,2.2-.8,3.4,0,.2-.2,1.5-.2,1.5,0,0-.8-2.1-.9-2.5-1.2-4.8-.5-9,2.2-12.5.6-.8,1.3-1.7,2-2.5.2-.2.4-.5.6-.7,1.4-1.7,2.2-3.4,2.6-5.3,0-.5.5-3.7-3.9-2.6-.6.1-1.1.3-1.7.4-1,.3-2,.5-3,.7-3.3.6-6.2.3-8.7-1.1-2.7-1.4-4.6-3.6-5.7-6.7-.2-.5-.3-1.2-.3-1.2,0,0,.9.3,2.4,1,1.5.6,3.6,1.5,4.8,1.9.7.2,1.5.4,2.3.5-3.3-1.9-6.7-4-9.5-7.3-2.2-2.7-3.7-5.7-4.4-8.9-.3-1.2-.5-3.4-.5-4.8,0-.4,0-.8.1-1.2h0s.3.3.3.3c.7.7,1.3,1.3,2,2,1.8,1.8,3.5,3.6,5.5,5.1,2.1,1.6,4.3,3.1,6.5,4.5-.3-.3-.6-.6-.9-.9-1.1-1-2.2-2.1-3.4-3.1Z"/>
    <g class="st3">
      <path class="st0" d="M73.8,50.4c-1.1-1-2.2-2.1-3.4-3.1l-1,1.1c1.1,1,2.3,2.1,3.4,3.1l1-1.1ZM74.8,51.3c-.3-.3-.6-.6-.9-.9l-1,1.1c.3.3.6.6.9.9l1-1.1ZM67.3,47.9c2.1,1.6,4.4,3.1,6.5,4.5l.8-1.2c-2.2-1.4-4.4-2.9-6.4-4.5l-.9,1.2ZM61.7,42.8c1.8,1.8,3.6,3.6,5.6,5.1l.9-1.2c-1.9-1.5-3.6-3.2-5.4-5l-1.1,1ZM59.8,40.8c.7.7,1.3,1.3,2,2l1.1-1c-.6-.7-1.3-1.3-2-2l-1,1.1ZM59.5,40.5l.3.3,1-1.1-.3-.3-1,1.1ZM60.7,40h0s-1.5,0-1.5,0h0s1.5,0,1.5,0ZM60.6,41.2c0-.4,0-.7.1-1.1l-1.5-.3c0,.4-.1.9-.1,1.3h1.5ZM61,45.9c-.2-1.2-.5-3.3-.4-4.7h-1.5c0,1.4.2,3.7.5,5l1.4-.3ZM65.3,54.5c-2.1-2.6-3.6-5.5-4.2-8.6l-1.4.3c.7,3.4,2.3,6.5,4.5,9.3l1.1-.9ZM74.6,61.7c-3.3-1.8-6.6-3.9-9.3-7.2l-1.1.9c2.9,3.5,6.4,5.7,9.7,7.5l.7-1.3ZM71.7,62.5c.8.2,1.6.4,2.4.5l.2-1.5c-.8,0-1.5-.2-2.2-.4l-.4,1.4ZM66.8,60.7c1.5.6,3.6,1.5,4.9,1.9l.4-1.4c-1.2-.3-3.2-1.2-4.7-1.8l-.6,1.4ZM64.7,59q-.2.7-.2.7h0s0,0,0,0c0,0,0,0,0,0,0,0,0,0,0,0,0,0,0,0,0,0,0,0,0,0,.1,0,.1,0,.3,0,.5.2.4.2,1,.4,1.8.7l.6-1.4c-.8-.3-1.4-.6-1.9-.7-.2,0-.4-.1-.5-.2,0,0,0,0-.1,0,0,0,0,0,0,0,0,0,0,0,0,0,0,0,0,0,0,0,0,0,0,0,0,0h0s0,0-.2.7ZM65.7,60c0-.2-.1-.5-.2-.7,0-.1,0-.2,0-.3,0,0,0,0,0,0,0,0,0,0,0,0,0,0,0,0,0,0,0,0,0,0,0,0,0,0,0,0,0,0h0-.7q-.7.3-.7.3h0s0,0,0,0c0,0,0,0,0,0,0,0,0,0,0,0,0,0,0,0,0,0,0,0,0,0,0,0,0,0,0,0,0,0,0,0,0,.2,0,.3,0,.3.1.6.2.9l1.4-.5ZM71,66.3c-2.5-1.4-4.3-3.4-5.3-6.3l-1.4.5c1.1,3.3,3.1,5.6,6,7.1l.7-1.3ZM79.2,67.4c-3.2.6-5.8.2-8.2-1l-.7,1.3c2.7,1.5,5.8,1.8,9.2,1.2l-.3-1.5ZM82.1,66.6c-1,.3-2,.5-2.9.7l.3,1.5c1-.2,2.1-.5,3.1-.8l-.4-1.4ZM83.8,66.2c-.6.1-1.1.3-1.7.5l.4,1.4c.5-.1,1.1-.3,1.7-.4l-.4-1.4ZM88.6,69.6c0-.2,0-.5,0-.9,0-.4-.1-1-.4-1.5-.3-.5-.8-1-1.6-1.2-.7-.2-1.7-.2-2.8.1l.4,1.4c1-.3,1.7-.3,2.1-.1.4,0,.6.3.7.5.1.2.2.5.2.8,0,.3,0,.5,0,.6l1.5.2ZM85.9,75.2c1.5-1.8,2.4-3.6,2.7-5.6l-1.5-.2c-.3,1.7-1,3.3-2.4,4.9l1.1.9ZM85.3,75.9c.2-.2.4-.5.6-.7l-1.1-.9c-.2.2-.4.5-.6.7l1.1,1ZM83.3,78.4c.6-.8,1.3-1.6,1.9-2.4l-1.1-.9c-.7.8-1.3,1.6-2,2.5l1.2.9ZM81.3,90.3c-1.2-4.6-.4-8.6,2.1-11.9l-1.2-.9c-2.8,3.8-3.6,8.2-2.3,13.2l1.4-.4ZM81.4,92.9l.7-.3h0s0,0,0,0c0,0,0,0,0,0,0,0,0,0,0,0,0,0,0,0,0,0,0,0,0,0,0,0,0,0,0-.1,0-.2,0-.2-.2-.5-.3-.8-.2-.6-.4-1.2-.4-1.3l-1.4.4c0,.2.3.9.5,1.4.1.3.2.6.3.8s0,.2,0,.2c0,0,0,0,0,0,0,0,0,0,0,0,0,0,0,0,0,0,0,0,0,0,0,0,0,0,0,0,0,0h0l.7-.3ZM80.9,91.3c0,0,0,.4-.1.8,0,.2,0,.3,0,.5,0,0,0,.1,0,.1,0,0,0,0,0,0,0,0,0,0,0,0,0,0,0,0,0,0,0,0,0,0,0,0h0s0,0,.7.1h.7q0,.1,0,.1h0s0,0,0,0c0,0,0,0,0,0,0,0,0,0,0,0,0,0,0,0,0-.1,0-.1,0-.3,0-.5,0-.3.1-.7.1-.8l-1.5-.2ZM81.7,87.7c-.5,1.2-.7,2.4-.9,3.6l1.5.2c.2-1.2.3-2.3.7-3.2l-1.3-.6ZM84.4,83.7c-1.1,1.1-2,2.5-2.7,4.1l1.3.6c.7-1.5,1.5-2.7,2.4-3.6l-1.1-1ZM88.9,79.1c-1.4,1.4-3,3-4.5,4.6l1.1,1c1.5-1.5,3-3.1,4.5-4.5l-1.1-1ZM92.3,74.4c-.8,1.7-2,3.3-3.4,4.7l1,1c1.5-1.5,2.7-3.2,3.6-5.1l-1.3-.6ZM92.7,60.9c1.9,4.4,1.8,8.7-.5,13.5l1.3.6c2.5-5.1,2.6-9.9.5-14.7l-1.4.6ZM91.7,58.4c.3.8.6,1.7,1,2.5l1.4-.6c-.4-.8-.7-1.6-1-2.4l-1.4.5ZM91.5,55.8c-.2.8-.2,1.7.2,2.6l1.4-.5c-.3-.7-.3-1.3-.2-1.7l-1.4-.4ZM92.8,54.1c-.4.1-.7.4-.9.7-.2.3-.3.6-.4,1l1.4.4c0-.3.2-.5.2-.6,0-.1,0,0,0,0l-.4-1.4ZM94.7,55c-.2-.3-.5-.6-.8-.7-.3-.2-.7-.3-1.1-.2l.4,1.4c0,0,0,0,0,0,0,0,.2.1.4.4l1.1-.9ZM96.2,59.9q.7-.2.7-.2h0s0,0,0,0c0,0,0,0,0,0,0,0,0,0,0,0,0,0,0,0,0,0,0,0,0,0,0-.1,0,0,0-.2-.1-.4-.1-.3-.3-.8-.5-1.3-.4-1-.9-2.2-1.5-2.9l-1.2.9c.4.5.9,1.5,1.2,2.5.2.5.3.9.4,1.2,0,.2,0,.3.1.4,0,0,0,0,0,.1,0,0,0,0,0,0,0,0,0,0,0,0,0,0,0,0,0,0h0s0,0,.7-.2ZM96.6,56c0,.5-.3,1.4-.6,2.2-.1.4-.3.8-.3,1.1,0,.1,0,.2-.1.3,0,0,0,0,0,0,0,0,0,0,0,0s0,0,0,0c0,0,0,0,0,0,0,0,0,0,0,0h0l.7.2.7.2h0s0,0,0,0c0,0,0,0,0,0,0,0,0,0,0,0,0,0,0,0,0,0,0,0,0,0,0,0,0,0,0-.2.1-.3,0-.3.2-.7.3-1.1.3-.8.6-1.8.6-2.4l-1.5-.2ZM95.6,51.2c.9,1.6,1.2,3.2.9,4.7l1.5.2c.3-1.9,0-3.8-1.1-5.7l-1.3.7ZM93.7,48.6c.8.9,1.4,1.8,1.9,2.7l1.3-.7c-.5-.9-1.2-1.9-2-2.9l-1.1.9ZM91,44.4c.6,1.1,1.9,3.1,2.7,4.1l1.1-.9c-.7-.9-1.9-2.8-2.6-3.9l-1.3.8ZM90.6,43.8c.1.2.3.5.4.7l1.3-.8c-.1-.2-.3-.5-.5-.7l-1.2.8ZM91,43l-.6.4h0s0,0,0,0c0,0,0,0,0,0,0,0,0,0,0,0,0,0,0,0,0,0,0,0,0,0,0,0,0,0,.1.2.2.3l1.2-.8c0-.1-.1-.2-.2-.3,0,0,0,0,0,0,0,0,0,0,0,0,0,0,0,0,0,0,0,0,0,0,0,0,0,0,0,0,0,0h0l-.6.4ZM91.5,44.3c0-.4,0-.8.2-1.2l-1.4-.3c-.1.5-.2,1-.2,1.5h1.5ZM91.8,49.5c-.4-1.4-.4-3.9-.3-5.2h-1.5c0,1.3,0,3.9.4,5.6l1.4-.4ZM90.3,49.9s0,0,.1.1c0,0,0,.1.1.2l1.1-1s0,0-.1-.1c0,0,0-.1-.1-.2l-1.1,1ZM89.4,49c.3.4.6.7.9,1l1.1-1c-.3-.3-.6-.6-.9-1l-1.1,1ZM89.3,48.8v.2c.1,0,1.2-1,1.2-1v-.2c-.1,0-1.2,1-1.2,1ZM90.1,49h.2c0-.1-.9-1.3-.9-1.3h-.2c0,.1.9,1.3.9,1.3ZM86.6,53.9c.8-1.8,1.9-3.6,3.5-4.9l-.9-1.2c-2,1.5-3.1,3.6-4,5.4l1.3.6ZM85.4,54c0,0-.1-.2-.1-.2l1.4-.6s0-.1-.1-.2l-1.1.9ZM82.9,50.7c.3.3.8,1,1.3,1.8.3.4.5.7.7,1,0,.1.2.2.2.3,0,0,0,0,0,.1,0,0,0,0,0,0,0,0,0,0,0,0,0,0,0,0,0,0l1.3-.8c0-.1-.6-.8-1.1-1.5-.5-.7-1.1-1.5-1.4-1.9l-1.1,1ZM78.5,46.7c1.4,1.1,2.9,2.3,4.5,4l1.1-1c-1.7-1.8-3.2-3.1-4.7-4.2l-.9,1.2ZM74.6,43.9c1.3.9,2.6,1.8,3.8,2.8l.9-1.2c-1.3-1-2.6-1.9-3.9-2.8l-.8,1.2ZM71.8,41.9c.9.7,1.9,1.4,2.8,2l.9-1.2c-.9-.6-1.9-1.3-2.8-2l-.9,1.2ZM69.4,40.2c.8.6,1.6,1.2,2.4,1.8l.9-1.2c-.8-.6-1.6-1.2-2.3-1.8l-.9,1.2ZM62.1,33c2.3,2.7,4.7,5.1,7.4,7.1l.9-1.2c-2.5-1.9-4.9-4.2-7.1-6.9l-1.1.9ZM61.9,32.8s0,0,0,0c0,0,0,0,.1.1l1.1-.9c0,0,0-.1-.1-.1,0,0,0,0,0,0l-1.1.9ZM61.5,32.3l.4.5,1.1-1-.4-.5-1.1,1ZM62.8,32.5v-.7s-1.5,0-1.5,0v.7s1.5,0,1.5,0ZM70.5,47.4c-3.4-3.1-7.5-7-7.7-14.8h-1.5c.2,8.5,4.7,12.8,8.1,15.9l1-1.1ZM73.3,51l-.5.5h0s.5-.5.5-.5ZM74.3,51.8l-.4.6.9-1.2-.5.5ZM67.8,47.3l.5-.6h0s-.5.6-.5.6ZM62.3,42.3l-.5.5h0s.5-.5.5-.5ZM60.3,40.3l-.5.5h0s.5-.5.5-.5ZM60,40l.5-.5-1.3-1.2v1.8h.7ZM60,40h.7c0,.1,0,0,0,0h0c0,0-.7,0-.7,0ZM59.9,41.2h-.7s0,0,0,0h.7ZM60.3,46l-.7.2h0s.7-.2.7-.2ZM64.7,55l-.6.5.6-.5ZM74.2,62.3v.7c0,0,.4-1.4.4-1.4l-.4.6ZM71.9,61.8l-.2.7h0s.2-.7.2-.7ZM67.1,60l-.3.7h0s.3-.7.3-.7ZM64.7,59l.2-.7-1.2-.4.2,1.2h.7ZM65,60.3l.7-.2h0s-.7.2-.7.2ZM70.6,67l.3-.7h0s-.3.7-.3.7ZM79.3,68.1v-.7h-.1v.7ZM82.3,67.3l-.2-.7h0s.2.7.2.7ZM84,66.9l-.2-.7h0l.2.7ZM87.9,69.5h-.7c0-.1,0-.1,0-.1h.7ZM85.3,74.7l-.6-.5h0s.6.5.6.5ZM84.7,75.5l-.6-.5h0s.6.5.6.5ZM82.7,77.9l.6.4h0l-.6-.4ZM80.6,90.5l-.7.2h0s.7-.2.7-.2ZM81.4,92.9l-.7.3h1.4c0-.1-.7-.3-.7-.3ZM81.6,91.4h-.7c0-.1,0,0,0,0h.7ZM82.4,88.1l-.7-.3h0s.7.3.7.3ZM85,84.2l.5.5h0l-.5-.5ZM89.4,79.7l-.5-.5h0s.5.5.5.5ZM92.9,74.7l.7.3h0s-.7-.3-.7-.3ZM93.4,60.6l-.7.3h0s.7-.3.7-.3ZM92.4,58.2l-.7.3h0l.7-.3ZM92.2,56l-.7-.2h0s.7.2.7.2ZM93,54.8l.2.7h0s-.2-.7-.2-.7ZM94.2,55.5l.6-.5h0s-.6.5-.6.5ZM96.2,59.9l-.7.2.7,2.2.7-2.1-.7-.2ZM97.3,56.1h.7c0,.1,0,.1,0,.1h-.7ZM96.3,50.9l.6-.4h0s-.6.4-.6.4ZM94.3,48.1l-.6.5h0s.6-.5.6-.5ZM91.7,44.1l-.6.4h0s.6-.4.6-.4ZM91.2,43.4l.6-.4h0s-.6.4-.6.4ZM91,43l.6-.4-.9-1.4-.4,1.7.7.2ZM90.8,44.3h.7s0,0,0,0h-.7ZM91.1,49.7l-.5.5,1.3-.7-.7.2ZM90.8,49.4l-.5.5h0s.5-.5.5-.5ZM90,48.5l.6-.5h0s-.6.5-.6.5ZM89.8,48.3l.6-.5-.5-.5-.5.4.4.6ZM89.7,48.4l.4.6h0s-.4-.6-.4-.6ZM85.9,53.6l-.7.3.7,1.6.7-1.5-.7-.3ZM85.9,53.6l-.6.4h0s0,0,0,0l.6-.5ZM83.5,50.2l.5-.5h0s-.5.5-.5.5ZM78.9,46.1l-.5.6h0s.5-.6.5-.6ZM75,43.3l-.4.6h0s.4-.6.4-.6ZM72.3,41.3l.4-.6h0s-.4.6-.4.6ZM69.9,39.6l.5-.6h0s-.4.6-.4.6ZM62.7,32.6l-.6.5h0s.6-.5.6-.5ZM62.5,32.3l.6-.5h0s0,0,0,0l-.6.5ZM62,31.8l.6-.5-1.4-1.6v2.2c0,0,.8,0,.8,0ZM62.1,32.6h.7s0,0,0,0h0s-.7,0-.7,0ZM70,47.9l.5-.5h0l-.5.5Z"/>
    </g>
  </g>
</svg>