<svg aria-hidden="true" id="_Слой_1" data-name="Слой_1" xmlns="http://www.w3.org/2000/svg" version="1.1" xmlns:xlink="http://www.w3.org/1999/xlink" viewBox="0 0 374.2 111.6">
  
  <defs>
    <style>
      .st0, .st1, .st2 {
        fill: #fff;
      }

      .st1 {
        fill-rule: evenodd;
      }

      .st3 {
        clip-path: url(#clippath-1);
      }

      .st2 {
        clip-rule: evenodd;
      }

      .st4 {
        clip-path: url(#clippath);
      }
    </style>
    <clipPath id="clippath">
      <path class="st2" d="M159.4,49.5s0,0-.1.2c-1.9,2-3.4,4.4-4.7,7.4-.7,1.7-1.3,3.6-1.7,5.7-.4,1.9-.7,3.9-.8,6.3,0,.2,0,.5,0,.8,0,0,0,0,0,0,0,0,0,0,0,0-.8-1.1-1.9-3-2.1-7.5,0-1.9.1-3.5.6-5,.8-2.6,2.3-4.6,4.3-6.1,1.4-1,2.8-1.6,4.3-1.8,0,0,.1,0,.2,0Z"/>
    </clipPath>
    <clipPath id="clippath-1">
      <path class="st2" d="M148.9,34.8c-2.3-2-5.1-4.8-5.2-10.2v-.5s.3.3.3.3c0,0,0,0,.1.2,1.5,1.8,3.1,3.3,4.8,4.6.5.4,1,.8,1.6,1.2.6.5,1.2.9,1.8,1.3.8.6,1.7,1.2,2.6,1.9.9.7,2,1.5,3,2.7.4.5,1.5,2.1,1.6,2.2,0,0,0,0,0,0,.5-1.2,1.3-2.5,2.5-3.4h.1c0,0,0,0,0,0,.2.2.4.4.6.6,0,0,.1.1.2.2-.3-1-.3-2.7-.2-3.6,0-.3,0-.6.1-.9,0,0,0,.1.2.3,0,.1.2.3.3.5.4.7,1.2,2.1,1.8,2.7.5.6,1,1.3,1.3,1.8.6,1.2.9,2.3.7,3.5-.1.7-.7,2.6-.7,2.6,0,0-.7-2.2-1.3-3-.3-.3-.5-.5-.8-.4-.2,0-.4.3-.5.8-.1.4,0,.9.1,1.4.2.5.4,1.1.7,1.6,1.4,3,1.3,6.1-.3,9.3-.6,1.2-1.4,2.3-2.3,3.3-1,1-2,2-3,3-.7.7-1.2,1.5-1.7,2.6-.3.7-.4,1.4-.5,2.2,0,.1-.1,1-.1,1,0,0-.5-1.4-.6-1.6-.8-3.2-.3-6,1.5-8.3.4-.6.9-1.1,1.3-1.6.1-.2.3-.3.4-.5,1-1.2,1.5-2.3,1.7-3.5,0-.3.3-2.5-2.6-1.7-.4,0-.7.2-1.1.3-.6.2-1.3.4-2,.5-2.2.4-4.1.2-5.8-.7-1.8-1-3.1-2.4-3.7-4.5-.1-.3-.2-.8-.2-.8,0,0,.6.2,1.6.6,1,.4,2.4,1,3.2,1.2.5.1,1,.2,1.5.3-2.2-1.2-4.5-2.6-6.3-4.9-1.5-1.8-2.4-3.8-2.9-5.9-.2-.8-.3-2.3-.3-3.2,0-.3,0-.5,0-.8h0s.2.2.2.2c.4.4.9.9,1.3,1.3,1.2,1.2,2.4,2.4,3.6,3.4,1.4,1.1,2.9,2,4.3,3-.2-.2-.4-.4-.6-.6-.7-.7-1.5-1.4-2.2-2Z"/>
    </clipPath>
  </defs>
  <g>
    <path class="st0" d="M31.2,71.3H0v-4.9l19.9-27.7H1.5v-7.1h29.7v4.7l-19.5,27.9h19.5v7Z"/>
    <path class="st0" d="M61.4,71.3h-23.6V31.6h22.7v7.1h-14.1v9.1h13.1v7.1h-13.1v9.4h15v7Z"/>
    <path class="st0" d="M100.3,71.3h-9.8l-5.4-9.9c-.9-1.6-1.7-2.8-2.6-3.6-.9-.8-1.9-1.3-3-1.4h-2.5v14.9h-8.6V31.6h14c4.7,0,8.3.9,10.7,2.8,2.4,1.9,3.6,4.7,3.6,8.4s-.8,4.9-2.3,6.8c-1.5,1.9-3.6,3.3-6.3,4.2h0c1.1.5,2.2,1.2,3.2,2.4,1,1.1,1.9,2.3,2.6,3.6l6.5,11.4ZM77,38.2v11.7h4c2,0,3.5-.6,4.7-1.8,1.2-1.2,1.8-2.6,1.8-4.4s-.5-3.2-1.6-4.1c-1.1-.9-2.6-1.4-4.8-1.4h-4.2Z"/>
    <path class="st0" d="M244.8,69.2c-2.1,1-4.1,1.7-6.1,2.1s-4.1.7-6.4.7c-6.2,0-11-1.7-14.6-5.2-3.5-3.5-5.3-8.4-5.3-14.8s1.9-11.1,5.8-15c3.9-4,8.9-6,15.3-6s4.1.2,5.8.5c1.7.3,3.4.8,5.2,1.5l-2.7,7c-1.3-.6-2.6-.9-3.9-1.2s-2.7-.4-4.1-.4c-3.3,0-6.2,1.2-8.6,3.5-2.4,2.3-3.6,5.5-3.6,9.5s1.1,7.3,3.2,9.6c2.1,2.3,5,3.5,8.7,3.5s2.3-.2,3.7-.5c1.4-.3,2.9-.9,4.4-1.6l3.2,6.9Z"/>
    <path class="st0" d="M259.8,71.3h-8.6V31.6h8.6v39.7Z"/>
    <path class="st0" d="M269.5,71.3V31.6h13.8c7,0,12.3,1.6,15.9,4.8,3.5,3.2,5.3,8.1,5.3,14.5s-1.9,11.1-5.8,14.8c-3.9,3.7-9,5.5-15.4,5.5h-13.8ZM278.1,38.7v25.6h4.5c4,0,7.1-1.2,9.3-3.5,2.2-2.4,3.4-5.6,3.4-9.7s-1.1-6.9-3.3-9.1c-2.2-2.2-5.3-3.3-9.4-3.3h-4.5Z"/>
    <path class="st0" d="M335.2,71.3h-23.6V31.6h22.7v7.1h-14.1v9.1h13.1v7.1h-13.1v9.4h15v7Z"/>
    <path class="st0" d="M374.2,71.3h-9.8l-5.4-9.9c-.9-1.6-1.7-2.8-2.6-3.6-.9-.8-1.9-1.3-3-1.4h-2.5v14.9h-8.6V31.6h14c4.7,0,8.3.9,10.7,2.8,2.4,1.9,3.6,4.7,3.6,8.4s-.8,4.9-2.3,6.8c-1.5,1.9-3.6,3.3-6.3,4.2h0c1.1.5,2.2,1.2,3.2,2.4,1,1.1,1.9,2.3,2.6,3.6l6.5,11.4ZM350.9,38.2v11.7h4c2,0,3.5-.6,4.7-1.8,1.2-1.2,1.8-2.6,1.8-4.4s-.5-3.2-1.6-4.1c-1.1-.9-2.6-1.4-4.8-1.4h-4.2Z"/>
  </g>
  <g>
    <path class="st0" d="M112.7,42.9l.5-1.3c.2-.6.3-1.1.2-1.7,0-.5-.2-1-.5-1.4-.3-.4-.6-.8-1-1-.4-.3-.9-.5-1.4-.7-1.2-.4-2.2-.5-3.1-.1-.9.3-1.6,1.1-2,2.3l-.4,1.2,7.6,2.8ZM112.7,44.3l-8.5-3.1.9-2.6c.5-1.4,1.3-2.5,2.4-3,1.1-.6,2.2-.6,3.6-.2,1.3.5,2.1,1.3,2.6,2.4.5,1.2.5,2.4,0,3.9l-.9,2.6Z"/>
    <path class="st0" d="M114.7,28.6c1.1.8,2.1,1.3,3.1,1.3,1,0,1.8-.3,2.4-1.1.5-.7.7-1.5.4-2.4-.3-.9-.9-1.7-1.8-2.4-1-.8-2-1.2-3-1.3-1,0-1.8.3-2.4,1.1-.5.7-.7,1.5-.4,2.4.3.9.8,1.7,1.7,2.3ZM114.1,29.9c-1.1-.8-1.7-1.9-1.9-3.1-.2-1.2.1-2.3.9-3.3.8-1,1.7-1.6,3-1.7,1.2-.1,2.4.2,3.4,1,1.1.9,1.8,1.9,1.9,3.1.2,1.2-.1,2.3-.9,3.3-.8,1-1.8,1.6-2.9,1.7-1.2.2-2.3-.2-3.4-1Z"/>
    <path class="st0" d="M127.9,10.4l3.4,4.8c.6.9.8,1.7.6,2.5-.2.8-.8,1.6-1.7,2.3-1,.7-1.9,1-2.8.8-.9-.1-1.6-.6-2.2-1.5l-3.3-4.7,1.1-.7,3.4,4.8c.5.8,1.1,1.2,1.8,1.3.7.1,1.3,0,2-.5.7-.5,1.1-1.1,1.2-1.8,0-.7,0-1.4-.6-2.1l-3.4-4.8.5-.3Z"/>
    <path class="st0" d="M139.3,10.2l-1,.3,1.3,3.8,1.2-.4c1.7-.6,2.3-1.5,1.9-2.8-.2-.6-.6-1-1.1-1.2-.6-.2-1.3-.1-2.1.2ZM138.2,10.1l1-.3c1.5-.5,2.1-1.3,1.7-2.5-.2-.6-.5-.9-1-1.1-.5-.2-1.1-.2-1.8,0l-1.1.4,1.2,3.5ZM135.6,6.6l2.6-.9c1.1-.4,2-.4,2.7-.2.7.2,1.2.6,1.4,1.3.2.5.1.9,0,1.4s-.6.8-1.1,1.1h0c1.6-.2,2.5.2,2.9,1.4.2.7.1,1.4-.3,2s-1.3,1.1-2.5,1.5l-2.7.9-2.9-8.6Z"/>
    <polygon class="st0" points="150.9 3.1 151.5 11.6 155.8 11.2 155.7 11.8 150.2 12.2 149.6 3.2 150.9 3.1"/>
    <polygon class="st0" points="163.8 4 163 7.9 166 8.4 165.9 8.9 163 8.3 162.3 12 166.6 12.8 166.5 13.3 160.9 12.2 162.5 3.3 168 4.4 168 4.8 163.8 4"/>
    <polygon class="st0" points="181.6 10.4 177.3 17.9 176.2 17.2 180.4 9.7 178.1 8.5 178.3 8.1 184.1 11.3 183.8 11.8 181.6 10.4"/>
    <path class="st0" d="M190.6,17l-3,3.1.6.6c.6.6,1.2.9,1.8.8.6,0,1.1-.3,1.5-.7.4-.4.6-.9.6-1.5,0-.6-.3-1.1-.8-1.7l-.7-.7ZM187.5,24.6l.3-1.4c.3-1.2.2-2-.3-2.5l-.3-.3-2.7,2.7-1-.9,6.3-6.5,1.8,1.8c.8.8,1.2,1.5,1.4,2.3.1.7,0,1.4-.6,1.9-.4.4-.9.7-1.6.8-.6,0-1.3-.1-2-.6.2.5.3,1.1.1,1.8l-.4,1.7c0,.4-.1.8,0,1,0,.2.1.4.4.6h0s-.3.2-.3.2c-.2-.1-.4-.3-.6-.5-.6-.5-.8-1.2-.6-2.1Z"/>
    <polygon class="st0" points="199.8 27.9 196.4 29.9 198 32.5 197.6 32.8 196 30.2 192.8 32.1 195.1 35.9 194.7 36.1 191.7 31.2 199.5 26.6 202.3 31.4 202 31.6 199.8 27.9"/>
    <polygon class="st0" points="205.3 39.9 201.6 41 202.4 43.9 202 44 201.2 41.1 197.5 42.2 198.8 46.5 198.3 46.6 196.7 41.1 205.4 38.5 207 43.9 206.5 44 205.3 39.9"/>
    <polygon class="st0" points="108.9 62.1 111.4 60.7 111.5 62 105.3 65.5 112.2 66.7 112.3 67.3 103.2 65.7 103.2 65.3 108.3 62.4 102.6 60.9 102.6 60.6 110.7 56.1 110.9 57.4 104.6 60.9 108.9 62.1"/>
    <polygon class="st0" points="117.2 78.6 109.5 82.4 108.9 81.3 112.6 79.4 110.7 75.5 106.9 77.3 106.4 76.2 114.1 72.3 114.7 73.5 111 75.3 113 79.2 116.6 77.4 117.2 78.6"/>
    <polygon class="st0" points="121.4 84.3 114.7 89.8 114 88.9 120.7 83.4 121.4 84.3"/>
    <polygon class="st0" points="127.4 90.7 122.2 97.1 121.2 96.3 126.4 89.9 124.4 88.3 124.7 88 129.6 92 129.3 92.4 127.4 90.7"/>
    <polygon class="st0" points="135 95.6 133.4 99 136 100.3 135.8 100.6 133.2 99.4 131.7 102.7 135.5 104.5 135.3 104.9 130.3 102.5 134.1 94.7 138.9 97 138.7 97.4 135 95.6"/>
    <path class="st0" d="M148.4,104.6h.7c.8.2,1.4,0,1.9-.4.5-.4.7-.9.8-1.6,0-.6,0-1.2-.4-1.6-.4-.5-.9-.7-1.8-.8h-.7c0,0-.5,4.4-.5,4.4ZM148.3,105l-.4,3.2h-1.3c0-.1,1-8.7,1-8.7l2.2.3c1.1.1,2,.5,2.5,1,.5.5.8,1.2.7,2,0,.3-.1.7-.3,1s-.4.6-.7.8c-.3.2-.7.4-1.2.5-.5.1-1.1.1-1.7,0h-.8Z"/>
    <polygon class="st0" points="165.7 98.9 167 107.5 165.8 107.7 165.1 103.6 160.8 104.3 161.4 108.4 160.1 108.6 158.8 100 160.1 99.8 160.7 103.8 165.1 103.2 164.4 99.1 165.7 98.9"/>
    <path class="st0" d="M174.2,100.3c.6,1.2,1.3,2,2.1,2.4.8.5,1.7.5,2.5,0,.8-.4,1.2-1,1.4-1.9.1-.9,0-1.8-.5-2.8-.6-1.1-1.2-1.9-2.1-2.4-.8-.5-1.7-.5-2.5,0-.8.4-1.2,1-1.3,1.9-.1.9,0,1.8.5,2.7ZM173.1,101.2c-.6-1.2-.7-2.3-.4-3.4.3-1.1,1.1-1.9,2.1-2.5,1.1-.5,2.2-.6,3.3-.2,1.1.4,1.9,1.1,2.5,2.3.6,1.2.7,2.4.4,3.4-.3,1.1-1.1,1.9-2.2,2.5-1.1.5-2.2.6-3.3.3-1.1-.4-1.9-1.1-2.5-2.3Z"/>
    <polygon class="st0" points="184.6 89.5 187.1 92.2 189.2 90.3 189.5 90.6 187.4 92.6 189.8 95.2 192.9 92.4 193.2 92.7 189.2 96.4 183.3 90 187.3 86.4 187.6 86.7 184.6 89.5"/>
    <polygon class="st0" points="201.6 81.4 192.5 82.4 198.6 86.2 198.3 86.7 191.6 82.5 190.6 82.6 191.4 81.3 199.7 80.3 194.2 76.9 194.5 76.4 201.9 81 201.6 81.4"/>
    <rect class="st0" x="200.5" y="67.4" width="1.1" height="8.6" transform="translate(67.4 238.2) rotate(-70.9)"/>
    <polygon class="st0" points="199.4 58.4 203 61.6 208 59.2 207.9 60.6 203.7 62.5 207.2 65.5 207.1 66.1 203.2 62.7 198.6 64.9 198.8 63.5 202.6 61.8 199.3 59.1 199.4 58.4"/>
    <polygon class="st0" points="184.5 81.8 184.5 82.7 180 82.7 180 76.1 184.4 76.1 184.4 77.1 181.1 77.1 181.1 78.8 183.6 78.8 183.6 79.7 181.1 79.7 181.1 81.8 184.5 81.8"/>
    <path class="st0" d="M178.4,80.9c0,.4,0,.7-.3,1-.2.3-.5.5-.8.7-.3.2-.7.2-1.1.2s-1-.1-1.5-.4c-.4-.3-.8-.6-1-1l.7-.6c.2.3.5.6.7.8.3.2.6.3,1,.3s.6,0,.8-.3c.2-.2.3-.4.3-.7s0-.4-.2-.6c-.1-.1-.4-.3-.7-.4l-.7-.3c-.5-.2-.9-.5-1.1-.7s-.4-.6-.4-1.1,0-.7.3-.9.4-.5.8-.6c.3-.1.7-.2,1-.2s.9.1,1.3.3c.4.2.7.5.9.9l-.7.6c-.2-.3-.4-.5-.6-.6-.2-.1-.5-.2-.8-.2s-.5,0-.7.2c-.2.1-.3.3-.3.6s0,.3.1.4c0,.1.2.2.3.3.1,0,.3.2.5.3l.7.3c.5.2.9.5,1.2.8.3.3.4.6.4,1.1Z"/>
    <path class="st0" d="M172.4,76.1v3.9c0,.6-.1,1.1-.3,1.5-.2.4-.6.7-1,1-.4.2-.9.3-1.4.3s-1-.1-1.4-.3c-.4-.2-.7-.5-1-1s-.3-.9-.3-1.5v-3.9h1.1v4c0,.6.2,1,.5,1.3.3.3.7.4,1.2.4s.9-.1,1.2-.4c.3-.3.5-.7.5-1.3v-4h1.1Z"/>
    <path class="st0" d="M164.5,79.4c0-.5-.1-.9-.3-1.2-.2-.4-.5-.7-.8-.9-.4-.2-.8-.3-1.2-.3s-.9.1-1.2.3c-.4.2-.6.5-.8.9-.2.4-.3.8-.3,1.2s.1.9.3,1.3c.2.4.5.7.8.9.4.2.8.3,1.2.3s.8-.1,1.2-.3c.4-.2.6-.5.8-.9.2-.4.3-.8.3-1.3ZM165.1,77.7c.3.5.5,1.1.5,1.7s-.2,1.2-.5,1.7-.7.9-1.3,1.2c-.5.3-1.1.4-1.7.4s-1.2-.1-1.7-.4c-.5-.3-.9-.7-1.3-1.2s-.5-1.1-.5-1.7.2-1.2.5-1.7c.3-.5.7-.9,1.3-1.2s1.1-.4,1.7-.4,1.2.1,1.7.4c.5.3,1,.7,1.3,1.2Z"/>
    <path class="st0" d="M157.4,81.4l1,1.3h-1.2l-.8-1.1-1-1.4h-.9v-1h1.3c.2,0,.4,0,.6-.2h0c.2-.2.3-.5.3-.8s0-.5-.2-.7c0,0,0,0,0,0-.2-.2-.5-.3-.9-.3h-1.3v1.8h-1.1v-2.8h2.4c.3,0,.6,0,.9.1,0,0,.2,0,.3.1.3.2.6.4.8.7,0,0,0,0,0,0,.2.3.3.6.3,1s0,.7-.3,1c0,0,0,0,0,.1-.2.3-.5.6-.9.7l1,1.4Z"/>
    <rect class="st0" x="153" y="80.5" width="1.1" height="2.2"/>
    <rect class="st0" x="153" y="79.2" width="1" height="1.1"/>
    <polygon class="st0" points="152.7 79.2 152.7 80.2 150.8 80.2 150.8 82.7 149.7 82.7 149.7 76.1 150.8 76.1 150.8 78.8 150.8 79.2 152.7 79.2"/>
    <polygon class="st0" points="148.4 81.8 148.4 82.7 143.9 82.7 143.9 76.1 148.3 76.1 148.3 77.1 145 77.1 145 78.8 147.5 78.8 147.5 79.7 145 79.7 145 81.8 148.4 81.8"/>
    <path class="st0" d="M141.3,79.4c0-.5-.1-.9-.3-1.2-.2-.3-.5-.6-.9-.8-.4-.2-.8-.3-1.3-.3h-1v4.7h1c.5,0,1-.1,1.3-.3.4-.2.7-.5.9-.8.2-.4.3-.8.3-1.2ZM142,77.7c.3.5.4,1.1.4,1.7s-.1,1.2-.4,1.7c-.3.5-.7.9-1.3,1.2s-1.2.4-1.9.4h-2.1v-6.6h2.1c.7,0,1.3.1,1.9.4.5.3,1,.7,1.3,1.2Z"/>
    <rect class="st0" x="133.8" y="76.1" width="1.1" height="6.6"/>
    <path class="st0" d="M132.3,77.5l-.8.6c-.2-.4-.5-.6-.9-.8-.3-.2-.7-.3-1.2-.3s-.8.1-1.2.3c-.4.2-.6.5-.9.9-.2.4-.3.8-.3,1.2s.1.9.3,1.2c.2.4.5.7.9.9.4.2.8.3,1.2.3s.8,0,1.2-.3c.3-.2.6-.5.9-.8l.8.6c-.3.5-.7.8-1.2,1.1-.5.3-1.1.4-1.7.4s-1.2-.1-1.7-.4c-.5-.3-.9-.7-1.3-1.2-.3-.5-.5-1.1-.5-1.7s.2-1.2.5-1.7c.3-.5.7-.9,1.3-1.2.5-.3,1.1-.4,1.7-.4s1.2.1,1.7.4c.5.3.9.6,1.2,1.1Z"/>
    <g>
      <path class="st1" d="M159.4,49.5s0,0-.1.2c-1.9,2-3.4,4.4-4.7,7.4-.7,1.7-1.3,3.6-1.7,5.7-.4,1.9-.7,3.9-.8,6.3,0,.2,0,.5,0,.8,0,0,0,0,0,0,0,0,0,0,0,0-.8-1.1-1.9-3-2.1-7.5,0-1.9.1-3.5.6-5,.8-2.6,2.3-4.6,4.3-6.1,1.4-1,2.8-1.6,4.3-1.8,0,0,.1,0,.2,0Z"/>
      <g class="st4">
        <path class="st0" d="M159.2,50s.1,0,.2,0v-1c-.2,0-.3,0-.3,0v1ZM155.1,51.7c1.4-1,2.7-1.5,4.1-1.7v-1c-1.7.2-3.2.8-4.7,1.9l.6.8ZM151,57.5c.8-2.5,2.2-4.4,4.1-5.8l-.6-.8c-2.1,1.5-3.6,3.6-4.5,6.3l.9.3ZM150.4,62.3c0-1.8.1-3.4.6-4.8l-.9-.3c-.5,1.5-.7,3.2-.6,5.1h1ZM152.4,69.6c-.7-1-1.8-2.8-2-7.2h-1c.2,4.6,1.3,6.6,2.2,7.8l.8-.6ZM152.4,69.6s0,0,0,0c0,0,0,0,0,0,0,0,0,0,0,0,0,0,0,0,0,0l-.8.5s0,0,0,0c0,0,0,0,0,0,0,0,0,0,0,0,0,0,0,0,0,0l.8-.5ZM151.5,69.8s0,0,0,0h1c0,0,0,0,0,0h-1ZM151.6,69c0,.2,0,.5,0,.8h1c0-.2,0-.4,0-.7h-1ZM152.4,62.6c-.4,1.9-.7,4-.8,6.4h1c.1-2.3.4-4.3.8-6.2l-1-.2ZM154.1,56.9c-.7,1.7-1.3,3.6-1.7,5.8l1,.2c.4-2.1,1-3.9,1.7-5.6l-.9-.4ZM158.9,49.3c-1.9,2-3.5,4.5-4.8,7.5l.9.4c1.2-3,2.7-5.3,4.6-7.2l-.7-.7ZM159,49.2s0,0-.1.2l.7.7c0,0,.1-.1.1-.2l-.7-.6ZM159.2,49.6v.5c0,0,0,0,0,0v-.5ZM154.8,51.3l.3.4h0l-.3-.4ZM150.5,57.4l-.5-.2h0s.5.2.5.2ZM149.9,62.4h.5s-.5,0-.5,0ZM152,69.8l.4-.3h0s0,0,0,0l-.4.3ZM152,69.9l-.4.3.8,1.2v-1.4c.1,0-.4,0-.4,0ZM152,69.8h-.5s0,0,0,0h.5ZM152.1,69h-.5s0,0,0,0h.5ZM152.9,62.7h-.5c0-.1,0-.1,0-.1h.5ZM154.6,57.1l.5.2h0l-.5-.2ZM159.3,49.7l.4.3h0s0,0,0,0l-.4-.3ZM159.4,49.5l.4.3.8-.9h-1.2c0,0,0,.6,0,.6Z"/>
      </g>
    </g>
    <g>
      <path class="st1" d="M148.9,34.8c-2.3-2-5.1-4.8-5.2-10.2v-.5s.3.3.3.3c0,0,0,0,.1.2,1.5,1.8,3.1,3.3,4.8,4.6.5.4,1,.8,1.6,1.2.6.5,1.2.9,1.8,1.3.8.6,1.7,1.2,2.6,1.9.9.7,2,1.5,3,2.7.4.5,1.5,2.1,1.6,2.2,0,0,0,0,0,0,.5-1.2,1.3-2.5,2.5-3.4h.1c0,0,0,0,0,0,.2.2.4.4.6.6,0,0,.1.1.2.2-.3-1-.3-2.7-.2-3.6,0-.3,0-.6.1-.9,0,0,0,.1.2.3,0,.1.2.3.3.5.4.7,1.2,2.1,1.8,2.7.5.6,1,1.3,1.3,1.8.6,1.2.9,2.3.7,3.5-.1.7-.7,2.6-.7,2.6,0,0-.7-2.2-1.3-3-.3-.3-.5-.5-.8-.4-.2,0-.4.3-.5.8-.1.4,0,.9.1,1.4.2.5.4,1.1.7,1.6,1.4,3,1.3,6.1-.3,9.3-.6,1.2-1.4,2.3-2.3,3.3-1,1-2,2-3,3-.7.7-1.2,1.5-1.7,2.6-.3.7-.4,1.4-.5,2.2,0,.1-.1,1-.1,1,0,0-.5-1.4-.6-1.6-.8-3.2-.3-6,1.5-8.3.4-.6.9-1.1,1.3-1.6.1-.2.3-.3.4-.5,1-1.2,1.5-2.3,1.7-3.5,0-.3.3-2.5-2.6-1.7-.4,0-.7.2-1.1.3-.6.2-1.3.4-2,.5-2.2.4-4.1.2-5.8-.7-1.8-1-3.1-2.4-3.7-4.5-.1-.3-.2-.8-.2-.8,0,0,.6.2,1.6.6,1,.4,2.4,1,3.2,1.2.5.1,1,.2,1.5.3-2.2-1.2-4.5-2.6-6.3-4.9-1.5-1.8-2.4-3.8-2.9-5.9-.2-.8-.3-2.3-.3-3.2,0-.3,0-.5,0-.8h0s.2.2.2.2c.4.4.9.9,1.3,1.3,1.2,1.2,2.4,2.4,3.6,3.4,1.4,1.1,2.9,2,4.3,3-.2-.2-.4-.4-.6-.6-.7-.7-1.5-1.4-2.2-2Z"/>
      <g class="st3">
        <path class="st0" d="M151.5,36.5c-.7-.7-1.5-1.4-2.2-2l-.7.7c.7.7,1.5,1.4,2.2,2l.7-.7ZM152.1,37.1c-.2-.2-.4-.4-.6-.6l-.7.7c.2.2.4.4.6.6l.7-.7ZM147.2,34.8c1.4,1.1,2.9,2.1,4.3,3l.5-.8c-1.4-.9-2.9-1.9-4.3-3l-.6.8ZM143.5,31.4c1.2,1.2,2.4,2.4,3.7,3.4l.6-.8c-1.3-1-2.4-2.1-3.6-3.3l-.7.7ZM142.2,30.1c.4.4.9.9,1.3,1.3l.7-.7c-.4-.4-.9-.9-1.3-1.3l-.7.7ZM142,29.9l.2.2.7-.7-.2-.2-.7.7ZM142.8,29.6h0s-1,0-1,0h0s1,0,1,0ZM142.7,30.4c0-.2,0-.5,0-.7l-1-.2c0,.3,0,.6,0,.9h1ZM143,33.5c-.2-.8-.3-2.2-.3-3.1h-1c0,.9.1,2.4.3,3.3l1-.2ZM145.8,39.2c-1.4-1.7-2.4-3.6-2.8-5.7l-1,.2c.5,2.2,1.5,4.3,3,6.1l.8-.6ZM152,43.9c-2.2-1.2-4.4-2.6-6.2-4.8l-.8.6c1.9,2.3,4.2,3.7,6.4,5l.5-.9ZM150.1,44.5c.5.1,1,.3,1.6.3v-1c-.4,0-.9-.2-1.3-.3l-.3.9ZM146.8,43.3c1,.4,2.4,1,3.2,1.3l.3-.9c-.8-.2-2.1-.8-3.1-1.2l-.4.9ZM145.4,42.2q-.2.5-.2.5h0s0,0,0,0c0,0,0,0,0,0,0,0,0,0,0,0,0,0,0,0,0,0,0,0,0,0,0,0,0,0,.2,0,.3.1.3,0,.7.3,1.2.5l.4-.9c-.5-.2-.9-.4-1.2-.5-.1,0-.2,0-.3-.1,0,0,0,0,0,0,0,0,0,0,0,0,0,0,0,0,0,0,0,0,0,0,0,0,0,0,0,0,0,0h0s0,0-.2.5ZM146.1,42.9c0-.1,0-.3-.1-.5,0,0,0-.1,0-.2,0,0,0,0,0,0,0,0,0,0,0,0,0,0,0,0,0,0,0,0,0,0,0,0,0,0,0,0,0,0h0-.5q-.5.2-.5.2h0s0,0,0,0c0,0,0,0,0,0,0,0,0,0,0,0,0,0,0,0,0,0,0,0,0,0,0,0,0,0,0,0,0,0,0,0,0,.1,0,.2,0,.2,0,.4.2.6l.9-.3ZM149.6,47c-1.7-.9-2.9-2.2-3.5-4.2l-.9.3c.7,2.2,2.1,3.7,4,4.7l.5-.9ZM155,47.7c-2.1.4-3.9.2-5.5-.7l-.5.9c1.8,1,3.8,1.2,6.1.8l-.2-1ZM157,47.2c-.6.2-1.3.4-1.9.5l.2,1c.7-.1,1.4-.3,2-.5l-.3-.9ZM158.1,46.9c-.4,0-.8.2-1.1.3l.3.9c.4,0,.7-.2,1.1-.3l-.2-.9ZM161.3,49.2c0-.1,0-.3,0-.6,0-.3,0-.6-.3-1-.2-.3-.6-.6-1.1-.8-.5-.1-1.1-.1-1.9,0l.2.9c.7-.2,1.1-.2,1.4,0,.3,0,.4.2.5.3,0,.1.1.3.1.5,0,.2,0,.3,0,.4l1,.2ZM159.5,52.9c1-1.2,1.6-2.4,1.8-3.7l-1-.2c-.2,1.1-.7,2.2-1.6,3.3l.8.6ZM159.1,53.4c.1-.2.3-.3.4-.5l-.8-.6c-.1.2-.3.3-.4.5l.8.6ZM157.8,55c.4-.5.9-1.1,1.3-1.6l-.8-.6c-.4.5-.9,1.1-1.3,1.6l.8.6ZM156.4,62.9c-.8-3-.3-5.7,1.4-7.9l-.8-.6c-1.9,2.5-2.4,5.4-1.5,8.7l1-.2ZM156.5,64.7l.5-.2h0s0,0,0,0c0,0,0,0,0,0,0,0,0,0,0,0,0,0,0,0,0,0,0,0,0,0,0,0,0,0,0,0,0-.2,0-.1-.1-.3-.2-.5-.1-.4-.3-.8-.3-.9l-1,.2c0,.2.2.6.3,1,0,.2.1.4.2.5s0,.1,0,.2c0,0,0,0,0,0,0,0,0,0,0,0,0,0,0,0,0,0,0,0,0,0,0,0,0,0,0,0,0,0h0l.5-.2ZM156.2,63.6c0,0,0,.3,0,.5,0,.1,0,.2,0,.3,0,0,0,0,0,0,0,0,0,0,0,0,0,0,0,0,0,0,0,0,0,0,0,0,0,0,0,0,0,0h0s0,0,.5,0h.5q0,0,0,0h0s0,0,0,0c0,0,0,0,0,0,0,0,0,0,0,0,0,0,0,0,0,0,0,0,0-.2,0-.3,0-.2,0-.5,0-.5h-1ZM156.7,61.2c-.3.8-.5,1.6-.6,2.4h1c.1-.7.2-1.4.5-2l-.9-.4ZM158.5,58.5c-.7.7-1.3,1.6-1.8,2.7l.9.4c.4-1,1-1.8,1.6-2.4l-.7-.7ZM161.5,55.5c-1,1-2,2-3,3l.7.7c1-1,2-2,3-3l-.7-.7ZM163.7,52.4c-.6,1.2-1.3,2.2-2.2,3.1l.7.7c1-1,1.8-2.1,2.4-3.4l-.9-.4ZM164,43.5c1.3,2.9,1.2,5.8-.3,8.9l.9.4c1.6-3.4,1.7-6.6.3-9.8l-.9.4ZM163.3,41.8c.2.5.4,1.1.7,1.7l.9-.4c-.2-.6-.5-1.1-.6-1.6l-.9.3ZM163.2,40c-.2.6-.1,1.1.1,1.7l.9-.3c-.2-.5-.2-.8-.1-1.2l-.9-.3ZM164.1,38.9c-.3,0-.4.3-.6.4-.1.2-.2.4-.3.7l.9.3c0-.2.1-.3.2-.4,0,0,0,0,0,0l-.3-.9ZM165.4,39.5c-.2-.2-.3-.4-.5-.5-.2-.1-.5-.2-.7-.1l.3.9s0,0,0,0c0,0,.1,0,.3.2l.8-.6ZM166.3,42.8q.5-.1.5-.1h0s0,0,0,0c0,0,0,0,0,0,0,0,0,0,0,0,0,0,0,0,0,0,0,0,0,0,0,0,0,0,0-.2,0-.3,0-.2-.2-.5-.3-.9-.2-.6-.6-1.5-1-1.9l-.8.6c.3.3.6,1,.8,1.7.1.3.2.6.3.8,0,.1,0,.2,0,.3,0,0,0,0,0,0,0,0,0,0,0,0,0,0,0,0,0,0,0,0,0,0,0,0h0s0,0,.5-.1ZM166.6,40.2c0,.3-.2.9-.4,1.5,0,.3-.2.5-.2.7,0,0,0,.2,0,.2,0,0,0,0,0,0,0,0,0,0,0,0s0,0,0,0c0,0,0,0,0,0,0,0,0,0,0,0h0l.5.2.5.2h0s0,0,0,0c0,0,0,0,0,0,0,0,0,0,0,0,0,0,0,0,0,0,0,0,0,0,0,0,0,0,0-.1,0-.2,0-.2.1-.4.2-.7.2-.5.4-1.2.4-1.6l-1-.2ZM165.9,37c.6,1.1.8,2.1.6,3.1h1c.2-1.1,0-2.4-.7-3.6l-.9.5ZM164.7,35.3c.5.6.9,1.2,1.2,1.8l.9-.5c-.3-.6-.8-1.2-1.3-1.9l-.8.6ZM162.9,32.5c.4.7,1.3,2.1,1.8,2.7l.8-.6c-.5-.6-1.3-1.9-1.7-2.6l-.8.5ZM162.6,32.1c0,.2.2.3.3.4l.8-.5c0-.1-.2-.3-.3-.5l-.8.5ZM162.8,31.6l-.4.3h0s0,0,0,0c0,0,0,0,0,0,0,0,0,0,0,0,0,0,0,0,0,0,0,0,0,0,0,0,0,0,0,.1.1.2l.8-.5c0,0,0-.1-.1-.2,0,0,0,0,0,0,0,0,0,0,0,0,0,0,0,0,0,0,0,0,0,0,0,0,0,0,0,0,0,0h0l-.4.3ZM163.2,32.4c0-.3,0-.5.1-.8l-1-.2c0,.3-.1.6-.1,1h1ZM163.4,35.9c-.2-1-.3-2.6-.2-3.5h-1c0,.9,0,2.6.2,3.7l.9-.2ZM162.4,36.2s0,0,0,0c0,0,0,0,0,.1l.7-.7s0,0,0,0c0,0,0,0,0-.1l-.7.7ZM161.8,35.5c.2.2.4.4.6.6l.7-.7c-.2-.2-.4-.4-.6-.6l-.7.6ZM161.7,35.4h0c0,.1.7-.6.7-.6h0c0-.1-.7.6-.7.6ZM162.3,35.6h.1c0,0-.6-.9-.6-.9h-.1c0,0,.6.9.6.9ZM160,38.8c.5-1.2,1.2-2.4,2.3-3.2l-.6-.8c-1.3,1-2.1,2.4-2.6,3.6l.9.4ZM159.1,38.9c0,0,0-.1,0-.1l.9-.4s0,0,0-.1l-.8.6ZM157.5,36.7c.2.2.5.7.9,1.2.2.2.3.5.4.6,0,0,.1.2.2.2,0,0,0,0,0,0,0,0,0,0,0,0,0,0,0,0,0,0,0,0,0,0,0,0l.8-.5c0,0-.4-.6-.7-1-.3-.5-.7-1-1-1.3l-.7.7ZM154.6,34c.9.7,1.9,1.5,3,2.6l.7-.7c-1.1-1.2-2.2-2-3.1-2.8l-.6.8ZM152,32.2c.8.6,1.7,1.2,2.5,1.8l.6-.8c-.9-.7-1.7-1.3-2.6-1.9l-.6.8ZM150.2,30.9c.6.5,1.3.9,1.9,1.3l.6-.8c-.6-.4-1.2-.9-1.8-1.3l-.6.8ZM148.6,29.7c.5.4,1,.8,1.6,1.2l.6-.8c-.5-.4-1-.8-1.6-1.2l-.6.8ZM143.7,25c1.5,1.8,3.1,3.4,4.9,4.7l.6-.8c-1.7-1.3-3.3-2.8-4.7-4.6l-.8.6ZM143.6,24.8s0,0,0,0c0,0,0,0,0,0l.8-.6s0,0,0,0c0,0,0,0,0,0l-.8.6ZM143.3,24.5l.3.3.7-.6-.3-.3-.7.6ZM144.2,24.6v-.5s-1,0-1,0v.5s1,0,1,0ZM149.3,34.5c-2.2-2-5-4.6-5.1-9.8h-1c.1,5.7,3.1,8.5,5.4,10.6l.7-.7ZM151.2,36.9l-.3.4h0s.3-.4.3-.4ZM151.8,37.4l-.3.4.6-.8-.3.4ZM147.5,34.5l.3-.4h0s-.3.4-.3.4ZM143.8,31.1l-.3.3h0s.3-.3.3-.3ZM142.5,29.8l-.3.3h0s.3-.3.3-.3ZM142.3,29.6l.3-.3-.8-.8v1.2h.5ZM142.3,29.6h.5c0,0,0,0,0,0h0s-.5,0-.5,0ZM142.2,30.4h-.5s0,0,0,0h.5ZM142.5,33.6h-.5c0,.1,0,.1,0,.1h.5ZM145.4,39.5l-.4.3.4-.3ZM151.7,44.4v.5c0,0,.2-.9.2-.9l-.2.4ZM150.2,44.1v.5c-.1,0-.1,0-.1,0v-.5ZM147,42.8l-.2.5h0s.2-.5.2-.5ZM145.4,42.2l.2-.5-.8-.3v.8c.1,0,.6,0,.6,0ZM145.6,43l.5-.2h0s-.5.2-.5.2ZM149.4,47.5l.2-.4h0s-.2.4-.2.4ZM155.1,48.2v-.5h0v.5ZM157.1,47.7v-.5c-.1,0-.1,0-.1,0v.5ZM158.2,47.4v-.5h-.1v.5ZM160.8,49.1h-.5c0,0,0,0,0,0h.5ZM159.1,52.6l-.4-.3h0s.4.3.4.3ZM158.7,53.1l-.4-.3h0s.4.3.4.3ZM157.4,54.7l.4.3h0l-.4-.3ZM156,63h-.5c0,.1,0,.1,0,.1h.5ZM156.5,64.7l-.5.2h.9c0,0-.5-.2-.5-.2ZM156.7,63.7h-.5c0,0,0,0,0,0h.5ZM157.2,61.4l-.4-.2h0s.4.2.4.2ZM158.9,58.9l.4.3h0l-.4-.3ZM161.8,55.9l-.3-.3h0s.3.3.3.3ZM164.2,52.6l.4.2h0s-.4-.2-.4-.2ZM164.5,43.3l-.4.2h0s.4-.2.4-.2ZM163.8,41.6l-.5.2h0l.5-.2ZM163.7,40.2h-.5c0-.1,0-.1,0-.1h.5ZM164.2,39.4v.5c.1,0,.1,0,.1,0v-.5ZM165,39.8l.4-.3h0s-.4.3-.4.3ZM166.3,42.8h-.5c0,.1.4,1.6.4,1.6l.5-1.4-.5-.2ZM167,40.2h.5c0,0,0,0,0,0h-.5ZM166.4,36.8l.4-.2h0s-.4.2-.4.2ZM165.1,34.9l-.4.3h0s.4-.3.4-.3ZM163.3,32.3l-.4.3h0s.4-.3.4-.3ZM163,31.8l.4-.3h0s-.4.3-.4.3ZM162.8,31.6l.4-.3-.6-.9-.3,1.1h.5ZM162.7,32.4h.5s0,0,0,0h-.5ZM163,36l-.4.3.8-.5h-.5ZM162.8,35.8l-.4.3h0s.4-.3.4-.3ZM162.2,35.2l.4-.3h0s-.4.3-.4.3ZM162.1,35.1l.4-.3-.3-.3-.4.3.3.4ZM162,35.2l.3.4h0s-.3-.4-.3-.4ZM159.5,38.6l-.5.2.4,1,.5-1-.4-.2ZM159.5,38.6l-.4.3h0s0,0,0,0l.4-.3ZM157.9,36.4l.4-.3h0s-.4.3-.4.3ZM154.9,33.7l-.3.4h0s.3-.4.3-.4ZM152.3,31.8l-.3.4h0s.3-.4.3-.4ZM150.4,30.5l.3-.4h0s-.3.4-.3.4ZM148.9,29.3l.3-.4h0s-.3.4-.3.4ZM144.1,24.7l-.4.3h0s.4-.3.4-.3ZM144,24.5l.4-.3h0s0,0,0,0l-.4.3ZM143.7,24.2l.4-.3-.9-1.1v1.4c0,0,.6,0,.6,0ZM143.7,24.6h.5s0,0,0,0h0s-.5,0-.5,0ZM148.9,34.8l.3-.4h0l-.3.4Z"/>
      </g>
    </g>
  </g>
</svg>