<?xml version="1.0" encoding="UTF-8"?>
<svg id="_Слой_1" data-name="Слой 1" xmlns="http://www.w3.org/2000/svg" viewBox="0 0 95.91 29.21">
  <defs>
    <style>
      .cls-1 {
        fill: #100f0d;
      }

      .cls-1, .cls-2 {
        fill-rule: evenodd;
      }

      .cls-2 {
        fill: #55b435;
      }
    </style>
  </defs>
  <polygon class="cls-1" points="23.51 24.85 20.74 20.24 18.03 24.85 14.78 24.85 18.95 17.91 14.7 11.47 18.09 11.47 20.82 15.77 23.42 11.47 26.67 11.47 22.48 18.12 26.78 24.85 23.51 24.85"/>
  <path class="cls-1" d="M37.35,20.3c0,2.94-2.22,4.78-5.12,4.78-2.56,0-4.72-1.41-4.93-4.49h2.77c.19,1.34,1.26,1.91,2.43,1.91,1.45,0,2.08-.98,2.08-2.24s-.98-2.14-2.33-2.14c-1.13,0-1.87.54-2.22,1.11h-2.65l.92-7.76h8.71l-.29,2.6h-6.23l-.25,2.57s.66-.77,2.64-.77c2.39,0,4.47,1.61,4.47,4.43Z"/>
  <path class="cls-2" d="M27.62,9.8C26.15,4.04,21.46,0,11.74,0H0l1.59,10.77c1.2,9.72,4.92,12.85,11.5,14,.03,0,.24.03.24-.21,0-.09-.05-.16-.13-.2-4.45-1.87-4.96-8.01-5.9-14.18l-.74-4.91h6.7c6.18,0,10.95-.1,13.97,4.67.05.07.11.12.2.12.12,0,.2-.09.2-.21,0-.02,0-.04,0-.06Z"/>
  <path class="cls-1" d="M39.67,18.15c0-4.16,3.02-7.16,7.21-7.16,2.81,0,5.35,1.63,6.09,3.87l-1.58.53c-.57-1.67-2.45-2.89-4.52-2.89-3.21,0-5.49,2.33-5.49,5.64s2.3,5.66,5.49,5.66c2.89,0,5.16-2.07,5.24-4.76l-6.64-.02v-1.54h8.39c.29,4.55-2.64,7.84-6.99,7.84s-7.21-3.02-7.21-7.18Z"/>
  <path class="cls-1" d="M55.95,15.26h1.54v1.29h.17c.44-.87,1.5-1.48,2.56-1.48.44,0,.89.1,1.18.25v1.46c-.49-.21-1.06-.29-1.42-.29-1.44,0-2.45,1.29-2.45,3.19v5.16h-1.58v-9.59Z"/>
  <path class="cls-1" d="M70.99,20.05c0-2.16-1.5-3.74-3.57-3.74s-3.57,1.58-3.57,3.74,1.48,3.76,3.57,3.76,3.57-1.58,3.57-3.76M62.28,20.05c0-3.02,2.13-5.16,5.14-5.16s5.14,2.15,5.14,5.16-2.14,5.18-5.14,5.18-5.14-2.14-5.14-5.18"/>
  <path class="cls-1" d="M83.17,24.85h-1.58v-1.31h-.19c-.67,1.04-1.75,1.65-3,1.65-2.45,0-3.99-1.77-3.99-4.21v-5.71h1.58v5.71c0,1.63.95,2.79,2.6,2.79s3-1.23,3-2.92v-5.58h1.58v9.59Z"/>
  <path class="cls-1" d="M87.21,20.05c0,2.11,1.5,3.76,3.57,3.76s3.55-1.65,3.55-3.76-1.5-3.74-3.55-3.74-3.57,1.63-3.57,3.74M95.91,20.05c0,3-2.15,5.18-4.94,5.18-1.54,0-2.83-.66-3.53-1.8h-.17v5.79h-1.58v-13.95h1.58v1.46h.17c.7-1.16,1.94-1.84,3.51-1.84,2.79,0,4.96,2.16,4.96,5.16Z"/>
</svg>