<?xml version="1.0" encoding="UTF-8"?>
<svg id="_Слой_1" data-name="Слой 1" xmlns="http://www.w3.org/2000/svg" viewBox="0 0 119.7 22">
  <defs>
    <style>
      .cls-1 {
        fill: #73c167;
      }

      .cls-2 {
        fill: #501a4a;
      }

      .cls-3 {
        fill: #6d2968;
      }

      .cls-4 {
        fill: #f58021;
      }
    </style>
  </defs>
  <path class="cls-1" d="M.53,4.38s-.82,3.68,1.36,4.79c2.18,1.11,5.67.41,6.26-.45.59-.86.73-1.46.73-1.46v-2.88"/>
  <path class="cls-3" d="M8.7,4.38s-.82,3.68,1.36,4.79c2.18,1.11,5.67.41,6.26-.45s.72-1.46.72-1.46v-2.88"/>
  <path class="cls-4" d="M17.05,4.38s-.82,3.68,1.36,4.79c2.18,1.11,5.67.41,6.26-.45s.73-1.46.73-1.46v-2.88"/>
  <path class="cls-2" d="M25.88,4.41c-.02-.25-.25-.43-.5-.41-.25.02-.43.25-.41.49,0,0,0,0,0,0,0,0,0,.01,0,.02.11.9.12,1.64,0,2.21-.11.59-.34,1.09-.68,1.51l-.02.03c-.51.61-1.24.98-2.11,1.07-.14.01-.83.05-.97.05h-.15c-.17,0-.73-.04-.89-.06-1.46-.18-2.45-1.13-2.74-2.6-.42-2.21.94-6.11.95-6.15.08-.24-.05-.49-.29-.57-.23-.07-.48.04-.56.27-.06.17-1.46,4.17-.99,6.62.03.13.06.26.09.38-.42,1.17-1.38,1.92-2.66,2.05-.14.01-.83.05-.97.05h-.15c-.17,0-.73-.04-.89-.06-1.46-.18-2.45-1.13-2.74-2.6-.43-2.21.94-6.11.95-6.15.08-.24-.06-.49-.3-.57-.23-.07-.48.04-.56.27-.06.17-1.46,4.17-.99,6.62.02.13.06.26.09.38-.42,1.17-1.38,1.92-2.66,2.05-.14.01-.83.05-.97.05h-.15c-.17,0-.73-.04-.89-.06-1.46-.18-2.45-1.13-2.74-2.6C.56,4.53,1.92.64,1.94.6c.08-.24-.05-.49-.29-.57-.23-.08-.48.04-.57.27-.06.17-1.46,4.16-.98,6.62.36,1.86,1.67,3.1,3.52,3.33.12.01.41.04.66.05v3.67c0,.25.19.46.44.46.25,0,.46-.19.46-.44h0v-3.69c.26-.01.56-.03.66-.04,1.34-.14,2.4-.8,3.04-1.85.62,1.02,1.66,1.68,2.95,1.84.12.02.41.04.66.05v3.67c0,.25.2.45.45.45s.45-.2.45-.45v-3.67c.26-.01.56-.03.66-.04,1.34-.14,2.4-.8,3.04-1.85.62,1.02,1.66,1.68,2.95,1.84.12.02.41.04.66.05v3.67c0,.25.2.45.45.45s.45-.2.45-.45v-3.67c.26-.01.56-.03.66-.04,1.12-.12,2.06-.6,2.72-1.4l.03-.04c.43-.53.72-1.17.86-1.9.13-.67.13-1.51,0-2.5"/>
  <path class="cls-2" d="M114.92,8.41h-3.31v2.64h3.33c1.14,0,1.43-.66,1.43-1.33s-.36-1.32-1.45-1.32h0ZM115.25,13.96h-6.99V.86h10.42v2.87h-7.07v1.98h3.41s2.09.03,3.11.61c1.02.59,1.56,1.67,1.56,3.89,0,2.57-2.21,3.74-4.45,3.74h0Z"/>
  <path class="cls-2" d="M40.85,8.41h-3.31v2.64h3.33c1.14,0,1.43-.66,1.43-1.33s-.36-1.32-1.45-1.32ZM37.55,5.72h3.41c.69,0,.99-.53.99-.99s-.28-.99-1.02-.99h-3.38v1.98ZM41.18,13.96h-6.99V.87h6.97c2.08,0,3.94,1.29,3.94,3.53,0,1.2-.48,2.03-1.22,2.59.84.46,1.75,1.4,1.75,3.23,0,2.57-2.21,3.74-4.45,3.74"/>
  <polygon class="cls-2" points="47.96 .87 51.26 .87 51.26 9.2 56.32 .87 59.83 .87 59.83 13.96 56.53 13.96 56.53 5.62 51.47 13.96 47.96 13.96 47.96 .87"/>
  <polygon class="cls-2" points="65.79 13.96 62.44 13.96 62.44 .87 65.79 .87 65.79 5.42 70.95 5.42 70.95 .87 74.3 .87 74.3 13.96 70.95 13.96 70.95 8.39 65.79 8.39 65.79 13.96"/>
  <path class="cls-2" d="M89.66.87v13.09h-3.36V3.84h-3.81l-.56,5.54c-.33,3.2-1.91,4.62-5.14,4.62v-2.92c1.14-.08,1.76-.56,1.88-1.91l.87-8.31h10.12Z"/>
  <path class="cls-2" d="M98.93,3.68c-1.86,0-3.35,1.63-3.35,3.76s1.5,3.69,3.35,3.69,3.35-1.65,3.35-3.69-1.5-3.76-3.35-3.76M105.64,13.96h-3.21v-1.4c-1.01,1.07-2.42,1.68-4.01,1.68-3.41,0-6.23-2.95-6.23-6.81s2.82-6.84,6.23-6.84c1.6,0,3,.61,4.01,1.68V.86h3.21v13.09Z"/>
  <path class="cls-2" d="M37.67,21.83c-.13.04-.26.08-.39.1-.14.03-.27.04-.41.06-.05,0-.09,0-.14,0-.05,0-.09,0-.13,0-.58,0-1.08-.17-1.51-.52-.42-.34-.64-.86-.64-1.54,0-.64.21-1.16.62-1.54.41-.38.97-.57,1.68-.57.12,0,.25,0,.37.02.11.01.22.03.33.06.04.01.07.02.11.03.04,0,.07.02.11.03l-.04.7c-.13-.05-.26-.09-.4-.12-.14-.02-.28-.04-.42-.04-.42,0-.77.12-1.05.37-.28.24-.42.59-.42,1.05,0,.47.12.8.37,1.01.25.21.52.33.82.36.04,0,.08,0,.12,0,.04,0,.07,0,.11,0,.15,0,.29-.01.44-.04.11-.02.23-.06.34-.1.02,0,.03,0,.05-.01.01,0,.03-.01.04-.02l.05.69Z"/>
  <path class="cls-2" d="M39.31,17.87l.82,1.74.18.43h.02l.18-.44.78-1.73h.83l-1.65,3.48c-.12.26-.27.43-.43.52-.17.09-.36.13-.55.13-.1,0-.2,0-.29-.03-.08-.01-.15-.03-.23-.06-.02,0-.04-.01-.06-.02-.02,0-.03-.01-.05-.02l.09-.62s.06.03.09.04c.03.01.06.02.08.03.03,0,.06,0,.09.01.03,0,.06,0,.09,0,.09,0,.18-.02.26-.04.08-.03.15-.11.21-.23l.12-.27-1.51-2.92h.94Z"/>
  <polygon class="cls-2" points="46.3 17.87 46.3 21.96 45.47 21.96 45.47 18.54 43.83 18.54 43.83 21.96 43 21.96 43 17.87 46.3 17.87"/>
  <polygon class="cls-2" points="50 17.87 50 18.6 48.38 18.6 48.38 19.52 49.86 19.52 49.86 20.19 48.38 20.19 48.38 21.23 50 21.23 50 21.96 47.54 21.96 47.54 17.87 50 17.87"/>
  <path class="cls-2" d="M52.34,17.87c.45,0,.78.08,1,.23.22.15.38.32.46.51.04.09.08.19.09.29.01.08.02.17.02.25v.06c-.02.3-.14.58-.37.83-.23.25-.59.38-1.06.38h-.54v1.53h-.84v-4.08h1.22ZM52.34,19.78c.23,0,.41-.06.52-.19.11-.12.18-.29.18-.46,0-.16-.05-.31-.16-.42-.1-.13-.29-.19-.54-.19h-.38v1.27h.38Z"/>
  <polygon class="cls-2" points="57.02 21.96 56.02 19.04 55.83 18.46 55.81 18.46 55.83 19.09 55.83 21.96 54.99 21.96 54.99 17.87 56.4 17.87 57.23 20.25 57.41 20.97 57.43 20.97 57.61 20.25 58.44 17.87 59.85 17.87 59.85 21.96 59.01 21.96 59.01 19.09 59.03 18.46 59.01 18.46 58.82 19.04 57.82 21.96 57.02 21.96"/>
  <path class="cls-2" d="M63.37,17.87l1.64,4.08h-.94l-.35-.92h-1.7l-.35.92h-.9l1.64-4.08h.96ZM63.47,20.37l-.61-1.67h-.01l-.57,1.67h1.19Z"/>
  <path class="cls-2" d="M67.14,17.87c.45,0,.78.08,1,.23.22.15.38.32.46.51.04.09.08.19.09.29.01.08.02.17.02.25v.06c-.02.3-.14.58-.37.83-.23.25-.59.38-1.06.38h-.54v1.53h-.84v-4.08h1.22ZM67.14,19.78c.23,0,.41-.06.52-.19.11-.12.18-.29.18-.46,0-.16-.05-.31-.16-.42-.1-.13-.29-.19-.54-.19h-.38v1.27h.38Z"/>
  <polygon class="cls-2" points="70.62 17.87 70.62 19.62 70.64 19.62 72.13 17.87 73.13 17.87 71.4 19.72 73.23 21.96 72.17 21.96 70.64 19.93 70.62 19.93 70.62 21.96 69.78 21.96 69.78 17.87 70.62 17.87"/>
  <polygon class="cls-2" points="76.56 17.87 76.56 18.6 74.93 18.6 74.93 19.52 76.41 19.52 76.41 20.19 74.93 20.19 74.93 21.23 76.56 21.23 76.56 21.96 74.1 21.96 74.1 17.87 76.56 17.87"/>
  <polygon class="cls-2" points="80.57 17.87 80.57 18.6 79.38 18.6 79.38 21.96 78.55 21.96 78.55 18.6 77.36 18.6 77.36 17.87 80.57 17.87"/>
  <polygon class="cls-2" points="84.81 17.87 84.81 19.52 86.48 19.52 86.48 17.87 87.32 17.87 87.32 21.96 86.48 21.96 86.48 20.19 84.81 20.19 84.81 21.96 83.97 21.96 83.97 17.87 84.81 17.87"/>
  <path class="cls-2" d="M90.83,17.87l1.64,4.08h-.94l-.35-.92h-1.7l-.35.92h-.9l1.64-4.08h.96ZM90.93,20.37l-.61-1.67h-.01l-.57,1.67h1.19Z"/>
  <polygon class="cls-2" points="96.69 17.87 96.69 21.96 95.85 21.96 95.85 18.54 94.22 18.54 94.22 21.96 93.38 21.96 93.38 17.87 96.69 17.87"/>
  <polygon class="cls-2" points="98.76 17.87 98.76 19.97 98.74 20.97 98.76 20.97 99.06 20.37 100.5 17.87 101.5 17.87 101.5 21.96 100.67 21.96 100.67 19.85 100.68 18.87 100.67 18.87 100.38 19.48 98.93 21.96 97.93 21.96 97.93 17.87 98.76 17.87"/>
  <polygon class="cls-2" points="105.64 17.87 105.64 18.6 104.44 18.6 104.44 21.96 103.61 21.96 103.61 18.6 102.42 18.6 102.42 17.87 105.64 17.87"/>
  <polygon class="cls-2" points="107.39 17.87 107.39 19.62 107.4 19.62 108.89 17.87 109.89 17.87 108.17 19.72 110 21.96 108.94 21.96 107.4 19.93 107.39 19.93 107.39 21.96 106.55 21.96 106.55 17.87 107.39 17.87"/>
  <path class="cls-2" d="M114.18,18.36c.39.36.58.87.58,1.55s-.19,1.2-.58,1.55c-.39.35-.87.53-1.44.53s-1.05-.18-1.44-.53c-.39-.35-.58-.87-.58-1.55s.19-1.2.58-1.55c.39-.36.87-.53,1.44-.53s1.05.18,1.44.53M112.54,18.43c-.07.01-.14.03-.21.06-.18.07-.35.21-.5.42-.15.21-.23.55-.23,1.01s.08.8.23,1.01.32.35.5.42c.07.03.14.05.21.06.13.02.26.02.39,0,.07-.01.14-.03.21-.06.18-.07.35-.21.5-.42.15-.21.23-.55.23-1.01s-.07-.8-.23-1.01c-.15-.21-.32-.35-.5-.42-.07-.03-.14-.05-.21-.06-.13-.02-.26-.02-.39,0"/>
  <path class="cls-2" d="M117.2,17.87c.07,0,.16,0,.27.02.12,0,.23.03.34.06.19.06.37.16.52.29.16.14.24.35.24.64,0,.23-.04.4-.13.53-.08.12-.17.22-.29.3-.04.03-.08.05-.13.07-.04.02-.08.03-.12.04h0c.23.04.45.15.61.32.17.17.25.39.25.67,0,.07,0,.13-.01.2-.01.07-.03.14-.06.21-.08.19-.23.36-.45.51-.23.15-.59.23-1.1.23h-1.3v-4.09h1.36ZM116.69,19.53h.41c.18,0,.32-.03.4-.09.08-.05.14-.12.19-.2.02-.04.04-.08.04-.12,0-.03,0-.07,0-.1s0-.06,0-.1c0-.04-.02-.07-.03-.11-.03-.08-.09-.15-.19-.21-.09-.06-.24-.09-.45-.09h-.37v1.01ZM116.69,21.32h.47c.24,0,.43-.05.55-.16.12-.1.19-.25.18-.41,0-.16-.04-.28-.12-.36-.08-.07-.17-.13-.27-.16-.07-.02-.13-.04-.2-.04-.07,0-.11,0-.14,0h-.46v1.14Z"/>
</svg>