<?xml version="1.0" encoding="UTF-8"?>
<svg id="_Слой_1" data-name="Слой 1" xmlns="http://www.w3.org/2000/svg" xmlns:xlink="http://www.w3.org/1999/xlink" viewBox="0 0 74.18 28.24">
  <defs>
    <style>
      .cls-1 {
        fill: #e30613;
      }

      .cls-1, .cls-2 {
        fill-rule: evenodd;
      }

      .cls-2 {
        fill: #fff;
      }

      .cls-3 {
        fill: none;
      }

      .cls-4 {
        clip-path: url(#clippath-1);
      }

      .cls-5 {
        fill: url(#_Безымянный_градиент_2);
      }

      .cls-6 {
        fill: url(#_Безымянный_градиент);
      }

      .cls-7 {
        clip-path: url(#clippath);
      }
    </style>
    <clipPath id="clippath">
      <path class="cls-3" d="M13.18,14.71c-.24.54-.52,1.3-.81,2.36,0,.03-.01.06-.02.09-.07.2-.11.27-.13.26-.52,2.74.06,4.81.26,5.42.02,0,.66,0,.95-.04,5.51-.69,9.79-5.4,9.79-11.12,0-1.13-.17-2.21-.48-3.24-4.2.18-7.8,2.7-9.55,6.28"/>
    </clipPath>
    <linearGradient id="_Безымянный_градиент" data-name="Безымянный градиент" x1="1264.88" y1="-187.41" x2="1265.88" y2="-187.41" gradientTransform="translate(1237.28 -8218.48) rotate(90) scale(6.51 -6.51)" gradientUnits="userSpaceOnUse">
      <stop offset="0" stop-color="#00a238"/>
      <stop offset=".78" stop-color="#99c21c"/>
      <stop offset="1" stop-color="#99c21c"/>
    </linearGradient>
    <clipPath id="clippath-1">
      <path class="cls-3" d="M8.22,16.22c0,2.95,1.75,5.48,4.26,6.62-.2-.61-.78-2.68-.26-5.42-.06-.04.03-.69.08-1.05.07-.48.15-.91.24-1.31-.8-1.17-1.88-2.13-3.15-2.77-.73,1.14-1.16,2.49-1.16,3.94"/>
    </clipPath>
    <linearGradient id="_Безымянный_градиент_2" data-name="Безымянный градиент 2" x1="1267.65" y1="-111.12" x2="1268.65" y2="-111.12" gradientTransform="translate(1060.92 -11971.45) rotate(90) scale(9.45 -9.45)" gradientUnits="userSpaceOnUse">
      <stop offset="0" stop-color="#00a238"/>
      <stop offset=".78" stop-color="#99c21c"/>
      <stop offset="1" stop-color="#99c21c"/>
    </linearGradient>
  </defs>
  <polygon class="cls-1" points="0 0 0 28.24 69.41 28.24 74.18 0 0 0"/>
  <path class="cls-2" d="M38.16,11.04s-.08-.06-.15-.08c-.07-.02-.16-.04-.28-.05-.12-.01-.27-.02-.45-.02s-.32,0-.44.02c-.12.01-.21.03-.28.05-.07.02-.12.05-.15.08,0,0-.01.02-.02.03l-.52,2.45h0s0,.05.03.07c.01.02.04.04.07.06.03.02.08.03.13.04.05,0,.12.01.2.01s.14,0,.2-.01c.05,0,.09-.02.12-.04.02-.01.06-.05.1-.09l1.48-2.43s-.01-.07-.04-.09"/>
  <path class="cls-2" d="M60.63,11.04s-.08-.06-.15-.08c-.07-.02-.16-.04-.28-.05-.12-.01-.27-.02-.45-.02s-.32,0-.44.02c-.11.01-.21.03-.28.05-.07.02-.12.05-.15.08,0,0-.01.02-.02.03l-.52,2.45h0s0,.05.03.07c.01.02.04.04.07.06.03.02.08.03.13.04.05,0,.12.01.2.01s.14,0,.2-.01c.05,0,.09-.02.12-.04.02-.01.06-.05.1-.09l1.48-2.43s-.01-.07-.04-.09"/>
  <path class="cls-2" d="M32.85,17.07c-.15.71-.42,1.29-.81,1.73-.39.43-.84.64-1.36.61-.6-.03-.99-.32-1.16-.87-.13-.43-.13-.98,0-1.63.13-.62.36-1.14.68-1.55.39-.49.87-.72,1.44-.7.56.03.95.29,1.15.8.17.43.19.97.06,1.61M35.16,14.12c-.62-.94-1.64-1.45-3.06-1.52-1.32-.07-2.47.28-3.45,1.03-.98.75-1.61,1.79-1.88,3.11-.57,2.73.83,4.59,3.48,4.72,1.29.06,2.43-.28,3.4-1.01,1.03-.78,1.68-1.86,1.97-3.25.25-1.21.1-2.23-.46-3.08"/>
  <path class="cls-2" d="M62.99,13.02s-.11-.06-.21-.08c-.1-.02-.24-.04-.42-.05-.07,0-.16,0-.25,0h-.85c-.09,0-.18,0-.25,0-.18.01-.33.03-.44.05-.09.02-.15.04-.2.06l-3.59,4.33.74-4.21s0-.07-.04-.1c-.04-.03-.11-.06-.21-.08-.1-.02-.23-.04-.4-.05-.07,0-.15,0-.24,0h-.82c-.09,0-.17,0-.24,0-.17.01-.31.03-.42.05-.11.02-.19.05-.24.08-.02.01-.03.02-.04.03l-1.47,8.05s.02.03.03.04c.04.03.11.06.21.08.1.02.24.04.42.05.17.01.4.02.68.02s.49,0,.67-.02c.18-.01.33-.03.44-.05.1-.02.18-.05.23-.08l.1-.12h0s0,0,0,0l3.45-4.13-.73,4.21s.02.03.03.04c.04.03.11.06.21.08.1.02.23.04.4.05.17.01.39.02.65.02s.47,0,.65-.02c.17-.01.31-.03.42-.05.11-.02.19-.05.24-.08.02-.01.04-.03.05-.05l1.46-8.01s-.02-.04-.04-.06"/>
  <path class="cls-2" d="M41.55,21.02h0l.04.1s.02.02.03.03c.05.03.13.06.25.08.12.02.29.04.49.05s.48.02.8.02.58,0,.8-.02c.21-.01.39-.03.52-.05.13-.02.23-.05.29-.08.06-.03.11-.07.12-.12l-2.06-4.51,3.18-3.41s.01-.06-.01-.09c-.03-.03-.1-.06-.2-.08-.1-.02-.25-.04-.43-.05-.18-.01-.42-.02-.71-.02s-.54,0-.74.02c-.2,0-.36.03-.49.05-.13.02-.23.05-.29.08-.02,0-.03.02-.05.03l-2.84,3.03.53-2.95s-.04-.08-.09-.12c-.05-.03-.13-.06-.25-.08-.11-.02-.26-.04-.44-.05-.18-.01-.4-.02-.67-.02s-.5,0-.68.02c-.17,0-.31.03-.42.05-.1.02-.17.05-.21.08,0,0-.01.02-.02.02l-1.43,8v-.02s0,.09.05.12c.04.03.11.06.21.08.1.02.24.04.42.05.18.01.4.02.68.02s.49,0,.67-.02c.18-.01.33-.03.44-.05.11-.02.2-.05.25-.08.04-.02.06-.05.07-.08l.67-3.74,1.51,3.7Z"/>
  <path class="cls-2" d="M53.15,14.43c.05-.1.08-.22.11-.35.03-.13.05-.25.07-.37.02-.12.03-.23.04-.32,0-.1.01-.16.01-.2,0-.18-.05-.29-.13-.34h-5.44c-.21.01-.39,0-.52.03-.13.02-.23.05-.29.08-.04.02-.08.05-.1.08l-.31,1.74-.22,1.21-.35,1.94-.23,1.31-.32,1.77h.01s.02.09.07.12c.05.03.13.06.25.09.12.02.29.04.49.05.2,0,.47.02.79.02h4.63s.09-.04.13-.09c.07-.07.12-.17.17-.28.05-.11.08-.23.12-.37.03-.13.05-.26.07-.39.02-.12.03-.24.04-.34.01-.1.02-.17.02-.21,0-.26-.08-.38-.24-.38h-3.43l.24-1.31h2.84c.05-.01.1-.04.15-.09.07-.07.12-.16.17-.26.05-.1.08-.22.12-.35.03-.13.05-.25.07-.37.02-.12.03-.22.04-.32,0-.1.01-.16.01-.2,0-.21-.06-.32-.17-.35h-2.88l.22-1.21h3.41c.06,0,.12-.04.18-.1.06-.07.12-.16.17-.26"/>
  <path class="cls-2" d="M13.86,23.07c-.45.05-.9.09-1.35.11h0s-5.68-2.48-5.61-7.81c.05-4.13,1.98-5.34,1.98-5.34,0,0,1.46.61,2.53,1.76.91.96,1.44,2.19,1.44,2.19,0,0,.52-2.89,3.29-5.24,4.05-3.67,8.43-3.36,8.43-3.36,0,0,.93,2.11.96,5,.07,6.74-4.02,11.6-10.38,12.53-.43.06-.86.12-1.29.17"/>
  <g class="cls-7">
    <rect class="cls-6" x="10.19" y="7.3" width="14.51" height="16.67" transform="translate(-3.13 4.43) rotate(-13.28)"/>
  </g>
  <g class="cls-4">
    <rect class="cls-5" x="6.9" y="11.89" width="6.95" height="11.33" transform="translate(-4.27 3.36) rotate(-15.31)"/>
  </g>
</svg>