<?xml version="1.0" encoding="UTF-8"?>
<svg id="_Слой_1" data-name="Слой_1" xmlns="http://www.w3.org/2000/svg" version="1.1" xmlns:xlink="http://www.w3.org/1999/xlink" viewBox="0 0 159.1 159.1">
  <!-- Generator: Adobe Illustrator 29.2.1, SVG Export Plug-In . SVG Version: 2.1.0 Build 116)  -->
  <defs>
    <style>
      .st0, .st1, .st2 {
        fill: #fff;
      }

      .st1 {
        fill-rule: evenodd;
      }

      .st3 {
        clip-path: url(#clippath-1);
      }

      .st2 {
        clip-rule: evenodd;
      }

      .st4 {
        clip-path: url(#clippath);
      }
    </style>
    <clipPath id="clippath">
      <path class="st2" d="M94.5,87.5c-.1.1-.3.3-.4.5-6,6.1-10.8,13.7-14.7,23.2-2.2,5.4-4,11.2-5.4,17.9-1.2,5.9-2.1,12.4-2.5,19.8,0,.8-.1,1.5-.2,2.4,0,0,0,.1,0,.2,0,0,0,0,0,0-2.5-3.4-6-9.5-6.5-23.6-.2-5.9.4-11,1.9-15.6,2.6-8.1,7.2-14.5,13.5-19.1,4.5-3.2,8.8-5,13.6-5.6.2,0,.5,0,.8,0Z"/>
    </clipPath>
    <clipPath id="clippath-1">
      <path class="st2" d="M61.5,41.2c-7.1-6.4-16.1-15-16.5-32v-1.5c0,0,.8,1.1.8,1.1,0,0,.2.3.4.5,4.6,5.6,9.7,10.5,15.1,14.6,1.6,1.2,3.3,2.5,4.9,3.7,1.9,1.4,3.9,2.8,5.8,4.2,2.7,1.9,5.4,3.8,8.1,5.9,3,2.3,6.2,4.8,9.6,8.5,1.3,1.4,4.8,6.5,5.1,7,0,0,0,0,0,0,1.7-3.8,4-7.9,7.8-10.8l.3-.3.3.3c.6.7,1.2,1.4,1.8,2,.2.2.4.4.6.6-.8-3.3-.9-8.5-.7-11.3,0-.9.2-1.8.4-2.8,0,0,.2.4.6.8.3.5.7,1,.9,1.4,1.4,2.3,3.9,6.5,5.5,8.4,1.7,2,3,3.9,4.1,5.8,2,3.6,2.7,7.3,2.1,10.9-.4,2.3-2.3,8.1-2.3,8.1,0,0-2.1-6.9-4.2-9.4-.9-1.1-1.7-1.5-2.4-1.3-.7.2-1.3,1-1.6,2.4-.4,1.4-.3,2.8.4,4.6.6,1.6,1.3,3.4,2.1,5.1,4.3,9.5,3.9,19.2-1,29.4-1.8,3.8-4.3,7.3-7.3,10.3-3,3-6.2,6.2-9.3,9.5-2.1,2.2-3.9,4.9-5.3,8-1,2.2-1.3,4.5-1.7,7.1,0,.4-.4,3.1-.4,3.1,0,0-1.6-4.4-1.8-5.1-2.5-9.9-1-18.7,4.6-26.1,1.3-1.8,2.7-3.5,4.1-5.1.4-.5.8-1,1.3-1.5,3-3.6,4.7-7.1,5.3-11,.2-1.1,1-7.7-8.1-5.4-1.2.3-2.4.6-3.5.9-2,.6-4.1,1.1-6.2,1.5-6.9,1.3-12.8.5-18.2-2.3-5.6-3-9.7-7.5-11.8-14-.3-1-.6-2.6-.6-2.6,0,0,1.8.6,5.1,2,3.1,1.3,7.4,3.1,10,3.9,1.5.4,3.1.8,4.8,1-6.9-3.9-14-8.3-19.8-15.3-4.6-5.6-7.7-11.8-9.1-18.7-.5-2.5-1-7.2-1-10,0-.8,0-1.7.3-2.5h0s.6.6.6.6c1.4,1.4,2.8,2.8,4.1,4.1,3.8,3.8,7.4,7.5,11.5,10.6,4.4,3.4,9,6.4,13.5,9.4-.6-.6-1.3-1.2-1.9-1.8-2.3-2.1-4.7-4.3-7-6.4Z"/>
    </clipPath>
  </defs>
  <g>
    <path class="st1" d="M94.5,87.5c-.1.1-.3.3-.4.5-6,6.1-10.8,13.7-14.7,23.2-2.2,5.4-4,11.2-5.4,17.9-1.2,5.9-2.1,12.4-2.5,19.8,0,.8-.1,1.5-.2,2.4,0,0,0,.1,0,.2,0,0,0,0,0,0-2.5-3.4-6-9.5-6.5-23.6-.2-5.9.4-11,1.9-15.6,2.6-8.1,7.2-14.5,13.5-19.1,4.5-3.2,8.8-5,13.6-5.6.2,0,.5,0,.8,0Z"/>
    <g class="st4">
      <path class="st0" d="M93.9,89.1c.1,0,.4,0,.7,0l-.2-3.1c-.3,0-.6,0-.9,0l.4,3.1ZM81,94.4c4.3-3.1,8.4-4.7,12.9-5.3l-.4-3.1c-5.1.6-9.7,2.5-14.3,5.9l1.8,2.5ZM68,112.7c2.5-7.8,6.9-14,13-18.3l-1.8-2.5c-6.7,4.8-11.4,11.5-14.1,19.9l2.9,1ZM66.2,127.8c-.2-5.8.4-10.7,1.8-15.1l-2.9-.9c-1.6,4.8-2.2,10.1-2,16.1h3.1ZM72.4,150.5c-2.3-3.1-5.7-8.9-6.2-22.7h-3.1c.5,14.5,4,20.9,6.8,24.6l2.5-1.9ZM72.5,150.6s0,0,0,0c0,0,0,0,0,0,0,0,0,0,0,0,0,0,0,0,0,0l-2.6,1.7s0,0,0,0c0,0,0,0,0,0,0,0,0,0,0,0,0,0,0,0,0,0l2.6-1.7ZM69.7,151.2c0,0,0,.1,0,.2l3.1.2c0,0,0-.1,0-.2l-3.1-.3ZM69.9,148.8c0,.8-.1,1.5-.2,2.4l3.1.3c0-.9.1-1.7.2-2.5l-3.1-.2ZM72.4,128.8c-1.3,6-2.1,12.6-2.6,20l3.1.2c.5-7.3,1.3-13.7,2.5-19.6l-3-.6ZM77.9,110.6c-2.3,5.5-4.1,11.4-5.5,18.2l3,.6c1.4-6.6,3.1-12.4,5.3-17.6l-2.9-1.2ZM93,86.9c-6.1,6.3-11,14.1-15,23.7l2.9,1.2c3.9-9.3,8.6-16.7,14.4-22.7l-2.2-2.2ZM93.3,86.5c-.1.1-.2.3-.4.5l2.3,2.1c.2-.2.3-.4.5-.5l-2.3-2ZM93.7,87.5l.2,1.5h0s-.2-1.5-.2-1.5ZM80.1,93.1l.9,1.3h0l-.9-1.3ZM66.6,112.2l-1.5-.5h0s1.5.5,1.5.5ZM64.7,127.8h1.5c0,0-1.5,0-1.5,0ZM71.2,151.4l1.3-.9h0s0,0,0,0l-1.2.9ZM71.2,151.5l-1.3.9,2.5,3.7.3-4.5h-1.5ZM71.2,151.3h-1.5c0-.1,0-.1,0-.1h1.5ZM71.4,148.9h-1.5c0,0,0,0,0,0h1.5ZM74,129.1l-1.5-.3h0s1.5.3,1.5.3ZM79.4,111.2l1.4.6h0l-1.4-.6ZM94.1,88l1.1,1.1h0s0,0,0,0l-1.1-1ZM94.5,87.5l1.2,1,2.5-2.9-3.8.3v1.5Z"/>
    </g>
  </g>
  <g>
    <path class="st1" d="M61.5,41.2c-7.1-6.4-16.1-15-16.5-32v-1.5c0,0,.8,1.1.8,1.1,0,0,.2.3.4.5,4.6,5.6,9.7,10.5,15.1,14.6,1.6,1.2,3.3,2.5,4.9,3.7,1.9,1.4,3.9,2.8,5.8,4.2,2.7,1.9,5.4,3.8,8.1,5.9,3,2.3,6.2,4.8,9.6,8.5,1.3,1.4,4.8,6.5,5.1,7,0,0,0,0,0,0,1.7-3.8,4-7.9,7.8-10.8l.3-.3.3.3c.6.7,1.2,1.4,1.8,2,.2.2.4.4.6.6-.8-3.3-.9-8.5-.7-11.3,0-.9.2-1.8.4-2.8,0,0,.2.4.6.8.3.5.7,1,.9,1.4,1.4,2.3,3.9,6.5,5.5,8.4,1.7,2,3,3.9,4.1,5.8,2,3.6,2.7,7.3,2.1,10.9-.4,2.3-2.3,8.1-2.3,8.1,0,0-2.1-6.9-4.2-9.4-.9-1.1-1.7-1.5-2.4-1.3-.7.2-1.3,1-1.6,2.4-.4,1.4-.3,2.8.4,4.6.6,1.6,1.3,3.4,2.1,5.1,4.3,9.5,3.9,19.2-1,29.4-1.8,3.8-4.3,7.3-7.3,10.3-3,3-6.2,6.2-9.3,9.5-2.1,2.2-3.9,4.9-5.3,8-1,2.2-1.3,4.5-1.7,7.1,0,.4-.4,3.1-.4,3.1,0,0-1.6-4.4-1.8-5.1-2.5-9.9-1-18.7,4.6-26.1,1.3-1.8,2.7-3.5,4.1-5.1.4-.5.8-1,1.3-1.5,3-3.6,4.7-7.1,5.3-11,.2-1.1,1-7.7-8.1-5.4-1.2.3-2.4.6-3.5.9-2,.6-4.1,1.1-6.2,1.5-6.9,1.3-12.8.5-18.2-2.3-5.6-3-9.7-7.5-11.8-14-.3-1-.6-2.6-.6-2.6,0,0,1.8.6,5.1,2,3.1,1.3,7.4,3.1,10,3.9,1.5.4,3.1.8,4.8,1-6.9-3.9-14-8.3-19.8-15.3-4.6-5.6-7.7-11.8-9.1-18.7-.5-2.5-1-7.2-1-10,0-.8,0-1.7.3-2.5h0s.6.6.6.6c1.4,1.4,2.8,2.8,4.1,4.1,3.8,3.8,7.4,7.5,11.5,10.6,4.4,3.4,9,6.4,13.5,9.4-.6-.6-1.3-1.2-1.9-1.8-2.3-2.1-4.7-4.3-7-6.4Z"/>
    <g class="st3">
      <path class="st0" d="M69.6,46.5c-2.3-2.1-4.7-4.3-7-6.4l-2.1,2.3c2.4,2.1,4.7,4.3,7,6.4l2.1-2.3ZM71.5,48.3c-.6-.6-1.3-1.2-1.9-1.8l-2.1,2.3c.7.6,1.3,1.2,1.9,1.8l2.1-2.3ZM56,41.2c4.4,3.4,9.1,6.5,13.6,9.4l1.7-2.6c-4.5-3-9.1-6-13.4-9.3l-1.9,2.4ZM44.4,30.5c3.8,3.8,7.5,7.5,11.6,10.7l1.9-2.5c-4-3-7.5-6.6-11.3-10.4l-2.2,2.2ZM40.2,26.4c1.4,1.4,2.8,2.8,4.1,4.1l2.2-2.2c-1.3-1.4-2.7-2.8-4.2-4.2l-2.2,2.2ZM39.6,25.8l.6.6,2.2-2.2-.6-.6-2.2,2.2ZM42.2,24.7h0s-3.1,0-3.1,0h0s3.1,0,3.1,0ZM42,27.2c0-.7,0-1.5.2-2.2l-3-.6c-.2.9-.3,1.8-.3,2.8h3.1ZM42.9,36.9c-.5-2.4-.9-6.9-.9-9.7h-3.1c0,3,.4,7.7,1,10.3l3-.6ZM51.7,54.9c-4.5-5.4-7.4-11.4-8.8-18l-3,.6c1.5,7.1,4.7,13.6,9.5,19.3l2.4-2ZM71.1,69.9c-6.9-3.9-13.8-8.2-19.4-15l-2.4,2c6,7.2,13.3,11.8,20.2,15.7l1.5-2.7ZM65.1,71.7c1.6.5,3.3.8,5,1l.4-3.1c-1.6-.2-3.1-.5-4.6-.9l-.8,3ZM54.9,67.8c3.1,1.3,7.5,3.2,10.2,3.9l.8-3c-2.4-.7-6.6-2.5-9.8-3.8l-1.2,2.8ZM50.4,64.4q-.5,1.5-.5,1.5h0s0,0,0,0c0,0,0,0,0,0,0,0,0,0,0,0,0,0,0,0,0,0,0,0,.1,0,.2,0,.2,0,.5.2.9.3.8.3,2.1.8,3.7,1.5l1.2-2.8c-1.7-.7-3-1.2-3.9-1.6-.4-.2-.8-.3-1-.4-.1,0-.2,0-.3,0,0,0,0,0,0,0,0,0,0,0,0,0,0,0,0,0,0,0,0,0,0,0,0,0h0s0,0-.5,1.5ZM52.5,66.5c-.1-.4-.3-1-.4-1.5,0-.2,0-.5-.1-.6,0,0,0-.1,0-.2,0,0,0,0,0,0,0,0,0,0,0,0,0,0,0,0,0,0,0,0,0,0,0,0h0l-1.5.3q-1.5.3-1.5.3h0s0,0,0,0c0,0,0,0,0,0,0,0,0,0,0,0,0,0,0,0,0,0,0,0,0,0,0,0,0,0,0,.1,0,.2,0,.2,0,.4.1.7.1.5.3,1.2.5,1.8l2.9-1ZM63.6,79.6c-5.3-2.8-9-7-11.1-13.1l-2.9,1c2.3,6.9,6.6,11.7,12.5,14.9l1.5-2.7ZM80.8,81.8c-6.6,1.3-12.2.5-17.2-2.2l-1.5,2.7c5.7,3.1,12,3.8,19.2,2.5l-.6-3ZM86.9,80.3c-2,.6-4.1,1.1-6.1,1.5l.6,3c2.2-.4,4.3-1,6.4-1.6l-.8-3ZM90.4,79.3c-1.2.3-2.4.6-3.5.9l.8,3c1.1-.3,2.3-.6,3.5-.9l-.8-3ZM100.4,86.4c0-.3.2-1.1.1-2,0-.9-.2-2-.9-3.1-.7-1.1-1.7-2-3.3-2.4-1.5-.4-3.5-.3-5.9.3l.8,3c2.1-.6,3.5-.5,4.4-.3.8.2,1.2.6,1.5,1,.3.5.4,1,.4,1.6,0,.6,0,1.1,0,1.3l3,.5ZM94.7,98.1c3.1-3.8,5-7.5,5.7-11.7l-3-.5c-.6,3.6-2.1,6.8-5,10.3l2.4,2ZM93.5,99.7c.4-.5.9-1,1.3-1.5l-2.4-2c-.4.5-.8,1-1.3,1.5l2.4,2ZM89.4,104.7c1.3-1.7,2.7-3.4,4.1-5.1l-2.4-2c-1.4,1.6-2.8,3.4-4.2,5.2l2.5,1.8ZM85.1,129.6c-2.4-9.5-.9-17.8,4.3-24.8l-2.5-1.8c-5.9,7.8-7.4,17.1-4.8,27.4l3-.8ZM85.4,135.1l1.5-.5h0s0,0,0,0c0,0,0,0,0,0,0,0,0,0,0,0,0,0,0,0,0,0,0,0,0,0,0-.1,0-.1-.1-.3-.2-.5-.2-.4-.4-1-.6-1.6-.4-1.2-.9-2.4-.9-2.7l-3,.8c.1.5.6,1.9,1,3,.2.6.4,1.2.6,1.6,0,.2.1.4.2.5,0,0,0,.1,0,.1,0,0,0,0,0,0,0,0,0,0,0,0,0,0,0,0,0,0,0,0,0,0,0,0h0l1.5-.5ZM84.3,131.8c0,.2-.1.9-.2,1.6,0,.4-.1.7-.1,1,0,.1,0,.2,0,.3,0,0,0,0,0,0,0,0,0,0,0,0,0,0,0,0,0,0,0,0,0,0,0,0h0s0,0,1.5.2l1.5.2h0s0,0,0,0h0s0,0,0,0c0,0,0,0,0,0,0,0,0,0,0,0,0,0,0-.2,0-.3,0-.3,0-.6.1-1,.1-.7.2-1.5.2-1.7l-3.1-.4ZM86.1,124.3c-1.1,2.4-1.4,5-1.8,7.5l3.1.4c.4-2.6.7-4.7,1.5-6.7l-2.8-1.3ZM91.7,115.8c-2.2,2.3-4.1,5.2-5.6,8.5l2.8,1.3c1.4-3,3.1-5.6,5-7.6l-2.2-2.1ZM101,106.3c-3,3-6.2,6.2-9.3,9.5l2.2,2.1c3.1-3.2,6.3-6.4,9.3-9.5l-2.2-2.2ZM108,96.5c-1.8,3.6-4.1,7-7,9.9l2.2,2.2c3.1-3.1,5.7-6.8,7.6-10.7l-2.8-1.3ZM109,68.4c4.1,9.1,3.8,18.2-1,28.1l2.8,1.3c5.1-10.6,5.5-20.7,1-30.7l-2.8,1.3ZM106.9,63.1c.6,1.7,1.3,3.4,2.1,5.2l2.8-1.3c-.8-1.7-1.5-3.4-2-5l-2.9,1ZM106.5,57.6c-.5,1.8-.3,3.5.4,5.5l2.9-1c-.5-1.5-.6-2.6-.3-3.6l-3-.8ZM109.2,54.1c-.8.2-1.4.8-1.8,1.4-.4.6-.7,1.3-.9,2.1l3,.8c.2-.6.4-1,.5-1.2.2-.2.2-.2,0-.1l-.8-3ZM113.2,55.9c-.5-.6-1.1-1.2-1.7-1.5-.6-.4-1.4-.5-2.3-.3l.8,3c-.1,0-.2,0,0,0,.2,0,.4.3.8.7l2.4-1.9ZM116.2,66.3q1.5-.5,1.5-.5h0s0,0,0,0c0,0,0,0,0,0,0,0,0,0,0,0,0,0,0,0,0,0,0,0,0-.1,0-.2,0-.2-.2-.5-.3-.8-.2-.7-.6-1.7-1-2.7-.8-2-1.9-4.6-3.1-6l-2.4,1.9c.8,1,1.8,3.2,2.6,5.2.4,1,.7,1.9.9,2.6.1.3.2.6.3.8,0,0,0,.2,0,.2,0,0,0,0,0,0,0,0,0,0,0,0,0,0,0,0,0,0h0s0,0,1.5-.5ZM117,58c-.2,1-.7,2.9-1.2,4.7-.3.9-.5,1.6-.7,2.2,0,.3-.2.5-.2.7,0,0,0,.1,0,.2,0,0,0,0,0,0s0,0,0,0c0,0,0,0,0,0,0,0,0,0,0,0h0l1.5.5,1.5.5h0s0,0,0,0c0,0,0,0,0,0,0,0,0,0,0,0,0,0,0,0,0,0,0,0,0-.1,0-.2,0-.2.1-.4.2-.7.2-.6.5-1.4.7-2.3.5-1.7,1.2-3.8,1.3-5.1l-3.1-.5ZM115,48.1c1.9,3.3,2.5,6.6,2,9.9l3.1.5c.6-4-.1-8-2.3-11.9l-2.7,1.5ZM111.1,42.5c1.6,2,2.9,3.8,3.9,5.6l2.7-1.5c-1.1-2-2.5-3.9-4.2-6l-2.4,2ZM105.4,33.9c1.3,2.2,4,6.5,5.7,8.6l2.4-2c-1.5-1.8-4-5.9-5.4-8.2l-2.6,1.6ZM104.6,32.5c.3.5.7,1,.9,1.4l2.7-1.6c-.3-.4-.6-1-.9-1.5l-2.6,1.7ZM105.3,30.9l-1.3.9h0s0,0,0,0c0,0,0,0,0,0,0,0,0,0,0,0,0,0,0,0,0,0,0,0,0,.1.1.2,0,.1.2.4.4.6l2.6-1.7c-.2-.2-.3-.4-.4-.6,0,0,0-.1-.1-.2,0,0,0,0,0,0,0,0,0,0,0,0,0,0,0,0,0,0,0,0,0,0,0,0h0l-1.3.9ZM106.5,33.7c0-.8.2-1.7.3-2.5l-3-.7c-.2,1-.4,2-.4,3h3.1ZM107.2,44.6c-.8-3-.8-8.1-.7-10.9h-3.1c-.1,2.7-.1,8.2.8,11.7l3-.8ZM104,45.4c0,0,.2.2.3.3,0,.1.2.2.3.3l2.3-2.1c0,0-.2-.2-.3-.3,0-.1-.2-.2-.3-.3l-2.3,2.1ZM102.1,43.4c.6.7,1.3,1.4,1.8,2l2.3-2.1c-.6-.6-1.2-1.3-1.8-2l-2.3,2ZM101.8,43l.3.3,2.3-2.1-.3-.3-2.3,2.1ZM103.6,43.5l.3-.3-1.9-2.5-.3.3,1.9,2.5ZM96.2,53.7c1.7-3.7,3.9-7.5,7.4-10.2l-1.9-2.5c-4.1,3.1-6.5,7.5-8.3,11.3l2.8,1.3ZM93.6,54c-.2-.2-.2-.4-.2-.4l2.9-1.2s0-.2-.3-.4l-2.4,2ZM88.6,47.1c.6.6,1.7,2.2,2.8,3.7.5.7,1,1.5,1.4,2,.2.3.4.5.5.7,0,0,.1.2.1.2,0,0,0,0,0,0,0,0,0,0,0,0,0,0,0,0,0,0l2.6-1.6c-.2-.3-1.2-1.7-2.2-3.2-1.1-1.5-2.3-3.2-3-4l-2.3,2.1ZM79.2,38.7c3,2.3,6.1,4.7,9.4,8.3l2.3-2.1c-3.5-3.8-6.8-6.4-9.7-8.7l-1.9,2.4ZM71.2,32.9c2.7,1.9,5.4,3.8,8,5.8l1.9-2.4c-2.7-2.1-5.5-4-8.1-5.9l-1.8,2.5ZM65.4,28.7c1.9,1.4,3.9,2.8,5.9,4.2l1.8-2.5c-1.9-1.4-3.9-2.7-5.8-4.1l-1.8,2.5ZM60.4,25c1.6,1.3,3.3,2.5,5,3.7l1.8-2.5c-1.6-1.2-3.3-2.4-4.9-3.7l-1.9,2.4ZM45.1,10.2c4.7,5.7,9.9,10.6,15.3,14.8l1.9-2.5c-5.3-4-10.3-8.9-14.8-14.4l-2.4,2ZM44.7,9.7c0,0,.1.1.2.2,0,0,.1.2.2.3l2.4-2c-.1-.1-.2-.2-.3-.3,0,0-.1-.1-.1-.2l-2.4,2ZM43.8,8.6l.9,1.1,2.3-2-.9-1.1-2.3,2ZM46.6,9.1v-1.5c0,0-3.2.1-3.2.1v1.5c0,0,3.2-.1,3.2-.1ZM62.5,40c-7.1-6.4-15.6-14.5-16-30.9h-3.1c.4,17.8,9.8,26.7,17,33.2l2.1-2.3ZM68.5,47.6l-1,1.1h0s1-1.1,1-1.1ZM70.5,49.4l-.8,1.3,1.9-2.4-1,1.1ZM56.9,40l.9-1.2h0s-.9,1.2-.9,1.2ZM45.5,29.4l-1.1,1.1h0s1.1-1.1,1.1-1.1ZM41.3,25.3l-1.1,1.1h0s1.1-1.1,1.1-1.1ZM40.7,24.7l1.1-1.1-2.6-2.6v3.7h1.5ZM40.7,24.7l1.5.3h0v-.3h-1.5ZM40.4,27.2h-1.5s0,0,0,0h1.5ZM41.4,37.2l-1.5.3h0s1.5-.3,1.5-.3ZM50.5,55.9l-1.2,1,1.2-1ZM70.3,71.2l-.2,1.5,1-2.9-.8,1.3ZM65.5,70.2l-.4,1.5h0s.4-1.5.4-1.5ZM55.5,66.4l-.6,1.4h0s.6-1.4.6-1.4ZM50.4,64.4l.5-1.5-2.5-.8.5,2.5,1.5-.3ZM51.1,66.9l1.5-.5h0s-1.5.5-1.5.5ZM62.8,81l.7-1.4h0s-.7,1.4-.7,1.4ZM81,83.3l-.3-1.5h0l.3,1.5ZM87.3,81.7l-.4-1.5h0s.4,1.5.4,1.5ZM90.8,80.8l-.4-1.5h0l.4,1.5ZM98.9,86.2l-1.5-.3h0s1.5.3,1.5.3ZM93.6,97.2l-1.2-1h0s1.2,1,1.2,1ZM92.3,98.7l-1.2-1h0s1.2,1,1.2,1ZM88.2,103.8l1.2.9h0l-1.2-.9ZM83.6,129.9l-1.5.4h0s1.5-.4,1.5-.4ZM85.4,135.1l-1.5.5,3-.3-1.5-.2ZM85.8,132l-1.5-.2h0s1.5.2,1.5.2ZM87.5,124.9l-1.4-.6h0s1.4.6,1.4.6ZM92.8,116.9l1.1,1.1h0l-1.1-1.1ZM102.1,107.4l-1.1-1.1h0s1.1,1.1,1.1,1.1ZM109.4,97.1l1.4.7h0s-1.4-.7-1.4-.7ZM110.4,67.7l-1.4.6h0s1.4-.6,1.4-.6ZM108.3,62.6l-1.5.5h0l1.5-.5ZM108,58l-1.5-.4h0s1.5.4,1.5.4ZM109.6,55.6l.4,1.5h0s-.4-1.5-.4-1.5ZM112,56.9l1.2-1h0s-1.2,1-1.2,1ZM116.2,66.3l-1.5.5,1.4,4.5,1.5-4.5-1.5-.5ZM118.5,58.2l1.5.2h0s-1.5-.2-1.5-.2ZM116.4,47.3l1.3-.8h0s-1.3.8-1.3.8ZM112.3,41.6l-1.2,1h0s1.2-1,1.2-1ZM106.8,33.1l-1.3.8h0s1.3-.8,1.3-.8ZM105.9,31.7l1.3-.8h0s-1.3.8-1.3.8ZM105.3,30.9l1.3-.9-2-2.9-.8,3.5,1.5.3ZM104.9,33.6h1.5c0,0,0,0,0,0h-1.5ZM105.7,45l-1.1,1.1,2.6-1.4-1.5.4ZM105.1,44.4l-1.1,1h0s1.1-1,1.1-1ZM103.3,42.3l1.2-1h0s-1.2,1-1.2,1ZM103,42l1.2-1-1-1.1-1.1.9.9,1.2ZM102.6,42.3l.9,1.2h0s-.9-1.2-.9-1.2ZM94.8,53l-1.4.6,1.4,3.3,1.5-3.2-1.4-.6ZM94.8,53l-1.3.8h0c0,0,0,.2,0,.2l1.2-1ZM89.7,46l1.1-1h0s-1.1,1-1.1,1ZM80.2,37.5l-.9,1.2h0s.9-1.2.9-1.2ZM72.1,31.7l-.9,1.3h0s.9-1.3.9-1.3ZM66.3,27.5l.9-1.2h0s-.9,1.2-.9,1.2ZM61.4,23.8l.9-1.2h0s-.9,1.2-.9,1.2ZM46.3,9.2l-1.2,1h0s1.2-1,1.2-1ZM45.9,8.7l1.2-1h0s0,0,0,0l-1.2,1ZM44.9,7.6l1.2-1-2.9-3.4.2,4.5h1.5ZM45,9.1h1.5s0,0,0,0h0s-1.5,0-1.5,0ZM61.5,41.2l1-1.1h0l-1,1.1Z"/>
    </g>
  </g>
</svg>