<?xml version="1.0" encoding="UTF-8"?>
<svg id="_Слой_1" data-name="Слой 1" xmlns="http://www.w3.org/2000/svg" xmlns:xlink="http://www.w3.org/1999/xlink" viewBox="0 0 96.96 27.34">
  <defs>
    <style>
      .cls-1 {
        fill: url(#_Безымянный_градиент_4);
      }

      .cls-2 {
        fill: #100f0d;
        fill-rule: evenodd;
      }

      .cls-3 {
        fill: none;
      }

      .cls-4 {
        clip-path: url(#clippath-1);
      }

      .cls-5 {
        fill: url(#_Безымянный_градиент_3);
      }

      .cls-6 {
        clip-path: url(#clippath);
      }
    </style>
    <clipPath id="clippath">
      <path class="cls-3" d="M7.95.05c-1.89.19-3.7,1.03-5.09,2.31C1.48,3.62.53,5.33.17,7.16c-.25,1.22-.22,2.49.06,3.7.48,2.08,1.79,3.85,3.17,5.43,2.64,2.92,5.81,5.3,9.1,7.44.12-.6.28-1.18.43-1.76.58-2.02,1.37-3.98,2.26-5.88.69-1.57,1.7-3,2.23-4.64.61-1.75.57-3.7-.04-5.45-.66-1.96-2.04-3.66-3.81-4.73-1.39-.85-3.01-1.29-4.64-1.29-.33,0-.66.02-.98.05"/>
    </clipPath>
    <linearGradient id="_Безымянный_градиент_3" data-name="Безымянный градиент 3" x1="1377.1" y1="125.32" x2="1378.1" y2="125.32" gradientTransform="translate(-17648.86 1618.42) scale(12.82 -12.82)" gradientUnits="userSpaceOnUse">
      <stop offset="0" stop-color="#c8d400"/>
      <stop offset=".19" stop-color="#b7ce2b"/>
      <stop offset=".8" stop-color="#76b837"/>
      <stop offset="1" stop-color="#76b82a"/>
    </linearGradient>
    <clipPath id="clippath-1">
      <path class="cls-3" d="M2.88,8.59c0,3.45,2.81,6.26,6.26,6.26s6.26-2.81,6.26-6.26-2.81-6.26-6.26-6.26-6.26,2.81-6.26,6.26"/>
    </clipPath>
    <linearGradient id="_Безымянный_градиент_4" data-name="Безымянный градиент 4" x1="1701.2" y1="-62.38" x2="1702.2" y2="-62.38" gradientTransform="translate(15644.94 581.79) rotate(-180) scale(9.19 -9.19)" gradientUnits="userSpaceOnUse">
      <stop offset="0" stop-color="#c8d400"/>
      <stop offset=".19" stop-color="#b7ce2b"/>
      <stop offset=".8" stop-color="#76b837"/>
      <stop offset="1" stop-color="#76b82a"/>
    </linearGradient>
  </defs>
  <g class="cls-6">
    <rect class="cls-5" x="-5.93" y="-2.72" width="29.82" height="29.19" transform="translate(-5.88 11) rotate(-49.55)"/>
  </g>
  <g class="cls-4">
    <rect class="cls-1" x=".61" y=".05" width="17.07" height="17.07" transform="translate(-3.04 5.62) rotate(-29.5)"/>
  </g>
  <path class="cls-2" d="M11.36,4.71c.66-.1,1.46.17,1.69.86,0,.16-.04.32-.11.46-.44.92-.83,1.86-1.17,2.82-.27.82-.52,1.66-.56,2.52-.35.02-.73.06-1.04-.14-.3-.18-.39-.56-.36-.89.07-1.02.46-1.98.74-2.96-.81,1.26-1.6,2.55-2.04,3.99-.37.02-.77.06-1.1-.14-.25-.14-.39-.43-.39-.71,0-1.16.18-2.33.07-3.49-.45,1.11-.84,2.25-1.1,3.41-.07.31-.11.62-.12.93-.35.05-.74.09-1.06-.12-.27-.18-.37-.53-.35-.84.02-.53.16-1.05.29-1.57.41-1.44,1-2.83,1.72-4.15.49.04.99.06,1.45.26.23.1.43.3.49.55.23.88.13,1.8.09,2.69.32-.57.64-1.14,1.04-1.65.53-.69,1.12-1.36,1.83-1.86M89.27,14.26c.92-.55,1.99-.86,3.06-.84,1.08.04,2.15.26,3.14.7.47.22.93.5,1.24.92.24.31.33.73.19,1.1-.9,2.55-1.82,5.09-2.4,7.74-.22,1.08-.41,2.18-.27,3.28-.57.22-1.21.24-1.8.13-.52-.1-1-.45-1.19-.95-.24-.57-.16-1.19-.18-1.79-.68.74-1.46,1.4-2.39,1.79-.6.25-1.3.37-1.93.13-.56-.21-.96-.7-1.19-1.23-.36-.83-.46-1.75-.47-2.65-.04-1.74.38-3.49,1.19-5.03.7-1.32,1.7-2.52,3-3.29M91.07,16.49c-1.06.92-1.61,2.28-2.01,3.6-.29,1.04-.52,2.15-.29,3.23.06.28.21.63.54.65.42-.08.71-.43.99-.74.69-.87,1.19-1.88,1.56-2.92.4-1.4,1-2.73,1.58-4.06-.73-.51-1.74-.33-2.38.24M36.92,13.59c1.1-.18,2.18.26,3.15.73.59.25.96.82,1.19,1.4.32.85.2,1.77.09,2.65-.28,1.9-.82,3.77-1.78,5.45-.67,1.17-1.58,2.26-2.81,2.87-1.04.52-2.27.46-3.38.19-.94-.26-1.89-.82-2.34-1.72-.4-.85-.43-1.81-.37-2.73.18-1.73.8-3.4,1.65-4.91.63-1.1,1.41-2.12,2.41-2.91.63-.49,1.37-.88,2.17-1M37.7,16.08c-.32.15-.54.43-.78.68-1.09,1.33-1.91,2.89-2.44,4.53-.31,1-.54,2.05-.44,3.1.04.28.17.67.52.64.48-.07.82-.47,1.12-.83.76-.98,1.27-2.13,1.71-3.28.46-1.27.83-2.59.88-3.94-.01-.29,0-.61-.16-.87-.08-.16-.28-.08-.41-.03M58.59,13.81c1.17-.48,2.53-.27,3.62.32.8.43,1.54,1.15,1.7,2.08.12,1.01-.13,2.06-.67,2.92-.61.96-1.57,1.64-2.61,2.06-1.23.52-2.56.71-3.88.8-.16.64-.26,1.3-.26,1.96.02.38.06.85.43,1.06.41.19.87-.06,1.17-.35.56-.55.96-1.32,1.73-1.6.84-.27,1.72.12,2.39.61-.65,1.2-1.58,2.3-2.82,2.89-1.11.55-2.42.58-3.6.28-.9-.23-1.73-.8-2.17-1.64-.55-1.04-.55-2.27-.37-3.4.31-1.81,1.04-3.54,2.05-5.07.83-1.22,1.89-2.37,3.29-2.92M59.73,16.32c-.51.42-.88.98-1.21,1.54-.41.69-.76,1.42-1.06,2.17,1.08-.31,2.17-.82,2.84-1.76.4-.55.56-1.27.38-1.93-.03-.11-.1-.22-.21-.27-.27-.05-.53.1-.74.26M64.59,14.5c2.86-.59,5.79-.86,8.71-.82.56.04,1.17.04,1.64.38.46.34.47.97.41,1.48-.05.24-.04.53-.25.69-1.11-.13-2.24-.15-3.36-.1.05.32-.04.64-.17.93-1.13,2.4-2.18,4.85-2.83,7.42-.2.79-.33,1.59-.37,2.41,0,.15-.2.14-.31.16-.68.07-1.46.08-2.02-.38-.49-.4-.62-1.07-.58-1.67.09-1.44.5-2.84.98-4.2.54-1.52,1.2-2.98,1.91-4.42-.7.12-1.38.31-2.09.35-.5.04-1.01-.19-1.3-.6-.34-.46-.44-1.07-.36-1.63M83.78,13.74c-1.41,2.21-3.25,4.14-5.37,5.68.43-1.07.92-2.13,1.41-3.18.13-.31.28-.64.22-.98-.06-.39-.37-.68-.71-.86-.58-.32-1.25-.43-1.91-.46-1.31,2.46-2.44,5.02-3.27,7.69-.32,1.1-.63,2.21-.72,3.36-.04.61.06,1.31.54,1.74.52.45,1.25.5,1.9.44.16-.03.39,0,.45-.19.05-1.48.5-2.91.92-4.32.32,1.11.69,2.24,1.36,3.2.45.64,1.12,1.19,1.93,1.25.77.04,1.54-.16,2.25-.47.14-.03.2-.15.22-.28-1.27-1.42-2.48-2.97-3.04-4.82,1.71-1.16,3.38-2.43,4.71-4.04.47-.62.99-1.34.91-2.16-.06-.63-.6-1.07-1.12-1.34-.22-.09-.45-.26-.69-.26M28,13.95c-2.37,1.83-4.2,4.28-5.57,6.93.05-1.83.29-3.7-.23-5.49-.16-.56-.69-.91-1.22-1.08-.83-.27-1.72-.36-2.58-.37-1.08,2.03-2.04,4.12-2.79,6.29-.52,1.52-.99,3.07-1.16,4.67-.08.65.01,1.4.53,1.85.61.52,1.49.48,2.24.37.04-.93.24-1.83.46-2.73.5-1.94,1.16-3.84,1.9-5.71.02-.07.06-.12.12-.16.13,2.24-.12,4.48-.17,6.72-.03.58.21,1.19.71,1.51.66.43,1.49.43,2.25.33.34-1.23.89-2.38,1.46-3.52.81-1.57,1.72-3.1,2.7-4.57-.66,1.87-1.31,3.76-1.55,5.74-.09.68-.02,1.48.54,1.95.62.49,1.47.48,2.21.35.07-1.61.52-3.17,1-4.69.67-2,1.48-3.95,2.39-5.86.11-.23.22-.46.21-.72-.02-.44-.25-.84-.56-1.13-.61-.6-1.51-.82-2.35-.8-.18.01-.39-.02-.53.11M51.29,13.89c-.89,1.63-1.67,3.33-2.35,5.06-.67-.03-1.33.02-2,.06.42-1.02.87-2.02,1.36-3.01.23-.45.13-1.05-.27-1.38-.63-.51-1.47-.64-2.26-.69-.96,1.78-1.82,3.62-2.53,5.52-.43.08-.87.17-1.3.25-.08.64.11,1.35.61,1.78-.36,1.17-.68,2.36-.77,3.58-.05.62.11,1.31.62,1.7.62.46,1.47.46,2.2.32.17-.17.07-.45.13-.67.19-1.71.71-3.36,1.26-4.98.7-.09,1.41-.14,2.11-.2-.36,1.19-.7,2.4-.81,3.64-.06.61.05,1.3.52,1.73.49.44,1.19.52,1.82.46.19-.03.41,0,.57-.14,0-.5.08-1,.17-1.49.28-1.43.72-2.82,1.2-4.19.62-1.75,1.33-3.46,2.12-5.13.16-.35.31-.76.15-1.14-.22-.52-.78-.77-1.28-.93-.41-.11-.85-.22-1.27-.18"/>
</svg>