<?xml version="1.0" encoding="UTF-8"?>
<svg id="_Слой_1" data-name="Слой 1" xmlns="http://www.w3.org/2000/svg" viewBox="0 0 46.51 46.51">
  <defs>
    <style>
      .cls-1 {
        fill: #ed1b24;
      }

      .cls-1, .cls-2, .cls-3, .cls-4 {
        fill-rule: evenodd;
      }

      .cls-2 {
        fill: #62bb47;
      }

      .cls-3 {
        fill: #023c77;
      }

      .cls-4 {
        fill: #fefffe;
      }
    </style>
  </defs>
  <path class="cls-2" d="M0,0h46.51v36.42c-5.35.01-10.71-.03-16.02-.67.79-1.16,1.2-2.6,1.02-3.99-.08-.37-.51-.35-.79-.42-.21-1.11-.83-2.17-1.85-2.71.07-.42.11-.84.12-1.26.26-.2.57-.38.76-.65.21-.31-.19-.82-.52-.53-.26.13-.54.6-.85.32-.29-.2-.58-.44-.94-.47-.61-.1-1.19.14-1.73.38-.57.29-1.23.1-1.82.27-.68.15-1.27.57-1.7,1.11-.04-.45-.12-.93-.48-1.24-.54-.55-1.36-.56-2.08-.57-.15.75-.21,1.55.19,2.24-.95.3-1.62,1.15-1.82,2.1-.41-.54-.8-1.12-1.34-1.54-.43-.35-1.02-.19-1.53-.23-.59.02-1.31-.12-1.75.36-.47.45-.45,1.29.04,1.73.43.46,1.11.25,1.65.35.59.65.94,1.47,1.38,2.21-.77-.11-1.51-.35-2.26-.54-3.26-.89-6.47-1.95-9.63-3.16-1.53-.64-3.03-1.33-4.56-1.98V0ZM10.96,7.24c-.95.5-1.62,1.47-1.78,2.52-.4,2.48-.71,5-1.56,7.38-.22.52-.39,1.13-.9,1.43-.68.45-1.27,1.16-1.31,2-.01,1.13-.05,2.25-.03,3.38-.01.44.33.88.77.92.54.07,1.09.01,1.64.03.68,0,1.43.08,2.02-.34.55-.31.83-.9.98-1.49,1.75,0,3.5-.01,5.26,0,.11.66.48,1.33,1.12,1.61.66.33,1.42.19,2.14.22.55-.02,1.21.06,1.62-.38.38-.4.22-.98.24-1.48.74-.01,1.48,0,2.22,0,.79,0,1.51-.52,1.84-1.22.25-.52.33-1.09.54-1.62,1.01,0,2.03,0,3.04,0,.17.55.29,1.12.52,1.65.34.74,1.15,1.19,1.96,1.19.81,0,1.62,0,2.43,0,.31.02.57-.14.79-.33.91.44,2.05.49,2.93-.04.93-.53,1.53-1.6,1.46-2.67,0-.86-.46-1.64-1.08-2.2.51-.51.46-1.27.51-1.93.14-2.34.33-4.68.43-7.03.03-.78-.37-1.63-1.11-1.94-.68-.34-1.46-.23-2.19-.25-.62.02-1.24-.05-1.85.05-.39.14-.69.56-.64.99.17,3.05.4,6.1.56,9.15.03.41.28.74.52,1.05-.15.14-.3.27-.45.4-.91-3.09-1.8-6.19-2.73-9.29-.38-1.28-1.58-2.34-2.96-2.33-.78.02-1.6-.11-2.32.22-1.01.42-1.69,1.38-2.02,2.4-.96,3.29-1.92,6.58-2.89,9.87-.26-.32-.6-.54-.97-.72,0-1.77,0-3.54,0-5.3.01-1.59-.06-3.17-.02-4.76.04-.53-.15-1.1-.6-1.4-.37-.29-.85-.28-1.3-.29-1.51,0-3.02,0-4.53,0-.8,0-1.59.18-2.3.55M14.04,11.36c-.34,2.34-.65,4.7-1.34,6.98.63.01,1.26.03,1.88-.03-.03-2.41-.01-4.82,0-7.23-.19.05-.52,0-.54.28M27.11,15.52c.08,0,.24.02.32.03-.05-.16-.1-.32-.14-.47-.06.15-.12.3-.18.45M21.53,29.01c-.79-.41-1.86-.28-2.43.44-.48.52-.54,1.26-.39,1.92,1.24.06,2.48.01,3.73.03.75,0,1.5.03,2.25-.03.19-.6.32-1.3,0-1.88-.34-.7-1.14-1.13-1.91-1.06-.48.03-.89.3-1.25.58"/>
  <path class="cls-3" d="M10.96,7.24c.71-.37,1.51-.55,2.3-.55,1.51,0,3.02,0,4.53,0,.44,0,.93,0,1.3.28.46.3.64.88.6,1.4-.04,1.59.04,3.17.02,4.76,0,1.77,0,3.54,0,5.3.37.17.71.4.97.72.97-3.29,1.94-6.58,2.89-9.87.32-1.02,1.01-1.98,2.02-2.4.73-.33,1.55-.2,2.32-.22,1.37-.01,2.57,1.04,2.96,2.33.92,3.09,1.81,6.19,2.73,9.29.15-.13.3-.27.45-.4-.24-.31-.48-.65-.52-1.05-.16-3.05-.4-6.1-.56-9.15-.05-.42.25-.85.64-.99.61-.09,1.23-.03,1.85-.05.73.02,1.51-.09,2.18.25.74.32,1.15,1.16,1.11,1.94-.11,2.35-.29,4.68-.43,7.03-.05.66,0,1.43-.51,1.93.62.57,1.08,1.34,1.08,2.2.07,1.07-.52,2.14-1.45,2.67-.88.53-2.02.48-2.93.04-.22.19-.49.35-.79.33-.81,0-1.62,0-2.44,0-.81,0-1.61-.45-1.96-1.19-.24-.53-.35-1.1-.52-1.65-1.01,0-2.03,0-3.04,0-.21.53-.29,1.11-.54,1.62-.33.7-1.06,1.22-1.84,1.22-.74.01-1.48,0-2.22,0-.02.49.14,1.07-.24,1.48-.41.44-1.07.36-1.62.38-.71-.03-1.47.11-2.14-.22-.64-.28-1.01-.94-1.12-1.61-1.75-.02-3.5,0-5.25,0-.15.58-.43,1.18-.98,1.49-.59.42-1.34.33-2.02.34-.54-.01-1.09.04-1.64-.03-.45-.05-.79-.49-.77-.92-.02-1.13.02-2.25.03-3.38.05-.84.63-1.55,1.31-2,.51-.3.68-.92.9-1.43.85-2.38,1.16-4.9,1.56-7.38.16-1.06.84-2.02,1.78-2.52M24.45,9.71c-1.2,4.14-2.44,8.28-3.62,12.42.81-.04,1.62,0,2.43-.02.26,0,.5-.1.73-.19.19-.22.39-.45.47-.74.19-.63.39-1.26.54-1.9,1.21,0,2.42,0,3.63,0-.07-.92-.27-1.97-1.05-2.56-.49-.39-1.13-.3-1.71-.29.42-1.62.95-3.2,1.38-4.82.98,3.21,1.89,6.44,2.84,9.65.15.51.66.84,1.18.84.81.03,1.62-.02,2.43.02-.06-.37-.18-.73-.29-1.09-1.14-3.9-2.29-7.81-3.43-11.71-.2-.65-.64-1.26-1.28-1.54-.62-.28-1.31-.2-1.96-.2-1.17.03-2.04,1.05-2.3,2.12M11.23,8.19c-.62.4-1.02,1.09-1.12,1.82-.41,2.6-.74,5.25-1.68,7.72-.27.6-.52,1.3-1.14,1.63-.49.27-.9.77-.91,1.34-.07,1.08,0,2.16-.03,3.24.76,0,1.51,0,2.27,0,.34,0,.71-.08.93-.36.36-.4.29-.98.29-1.48,2.39,0,4.77,0,7.16,0,0,.37-.04.76.06,1.12.11.33.39.64.74.71.81.02,1.62,0,2.44,0,.01-1.01,0-2.01,0-3.01,0-.54-.14-1.15-.61-1.48-.25-.18-.58-.14-.88-.14,0-3.64,0-7.29,0-10.93.01-.23-.06-.46-.16-.66-.53-.09-1.07-.06-1.61-.06-1.28,0-2.56,0-3.84,0-.67,0-1.34.18-1.91.53M33.98,7.69c.14,2.59.28,5.18.43,7.77.02.53,0,1.08.15,1.6.22.05.44.11.66.09.66-.05,1.32-.02,1.97-.03.16-.49.12-1.02.19-1.52.13-1.99.27-3.98.39-5.98-.02-.47.14-1.01-.15-1.43-.25-.41-.79-.5-1.24-.5-.8,0-1.61-.01-2.41.02M27.12,15.52c.08,0,.24.02.32.03-.05-.16-.1-.32-.14-.47-.06.15-.12.3-.18.44M35.71,18.15c-.61.06-1.19.43-1.49.97-.52.84-.25,2.06.56,2.61.73.55,1.84.48,2.51-.13.72-.63.87-1.8.33-2.6-.4-.63-1.18-.96-1.92-.87M13.09,11.22c-.24,1.73-.49,3.46-.87,5.17-.25.99-.43,2.04-1.03,2.89,1.45-.02,2.89.02,4.34-.02-.02-2.19,0-4.39,0-6.59-.01-.53.11-1.08.42-1.51.38-.55,1-.82,1.6-1.06-1.08.05-2.17,0-3.26.03-.58.03-1.13.48-1.19,1.07M14.04,11.36c-.35,2.34-.65,4.7-1.34,6.98.63.01,1.26.03,1.88-.03-.03-2.41-.01-4.82,0-7.23-.19.04-.52,0-.53.28M19.62,26c.72,0,1.54.02,2.08.57.37.3.44.79.48,1.24.43-.54,1.02-.96,1.7-1.11.6-.17,1.25.01,1.82-.27.54-.25,1.13-.48,1.73-.38.36.03.65.27.94.47.31.28.59-.19.85-.32.32-.29.73.22.52.53-.2.28-.5.45-.76.65-.01.42-.05.84-.12,1.26,1.02.54,1.64,1.6,1.85,2.71.29.07.71.05.79.42.18,1.39-.23,2.84-1.02,3.99-.13.18-.27.35-.4.52-.54.6-1.25,1.04-2,1.33-1.01.36-2.05.62-3.05,1.01l-.03-.28c-.02.1-.05.2-.07.31.15.03.3.06.45.09,1.03.17,2.02.5,2.98.89.65.29,1.28.89,1.23,1.66.04.51-.24.99-.62,1.3-.43.43-1.11.3-1.66.27-.72-.16-1.12-.91-1.14-1.6-1.24-.2-2.49-.12-3.74-.13-.9-.02-1.8.11-2.71.11-.15.61-.38,1.29-1.01,1.55-.97.57-2.5-.2-2.42-1.38.01-.35-.05-.75.2-1.04.63-.8,1.49-1.35,2.35-1.87.45-.27.9-.55,1.4-.72-.94-.08-1.95-.53-2.33-1.45-.31-.81-.64-1.6-1.04-2.37-.13-.25-.28-.5-.43-.73-.44-.75-.79-1.57-1.38-2.21-.55-.09-1.23.12-1.65-.35-.5-.43-.52-1.27-.04-1.73.45-.49,1.17-.34,1.75-.36.51.04,1.1-.12,1.53.23.54.42.93.99,1.34,1.54.2-.96.87-1.8,1.82-2.1-.39-.69-.33-1.49-.19-2.24M20.13,26.62c-.01.45-.09.99.29,1.32.27.27.69.21,1.04.24.07-.34.15-.75-.09-1.05-.28-.39-.8-.47-1.24-.52M25.72,27.1c-.52.24-1.1.05-1.64.19-.38.09-.73.28-1.05.49.76.08,1.47.43,1.97,1.02.92-.68,2.14-.77,3.23-.47.33-.67-.16-1.58-.9-1.67-.58-.08-1.09.24-1.61.44M21.53,29.02c-.79-.41-1.85-.28-2.43.44-.48.52-.54,1.26-.39,1.92,1.24.06,2.49.02,3.73.03.75-.01,1.5.03,2.25-.03.19-.6.32-1.3,0-1.88-.34-.7-1.14-1.13-1.91-1.06-.48.03-.89.3-1.25.58M26.14,28.9c-.25.12-.51.24-.76.36,0,.17.02.34.04.51.15.35.16.79.01,1.14-.02.11-.04.34-.06.45.38.09.76.06,1.14.04,1.05.02,2.1,0,3.15.01.14-.02.28-.06.42-.09-.07-.21-.14-.41-.21-.62-.23-.57-.6-1.11-1.15-1.4-.12-.14-.29-.2-.44-.27-.68-.26-1.43-.3-2.13-.13M13.98,29.31c-.36.21-.31.71-.03.96.49.02.98.02,1.48.02,1.31,1.75,2.35,3.7,3.11,5.75.26.62.93.98,1.58.99,1.37.03,2.74-.01,4.11.01-2.38.59-4.69,1.6-6.61,3.14-.25.23-.55.43-.67.76-.07.36-.04.8.27,1.05.44.44,1.26.36,1.6-.16.22-.36.17-.83-.06-1.18,1.11-.09,2.23-.2,3.34-.21,1.66-.11,3.31.02,4.96.2-.22.39-.29.91.03,1.27.46.57,1.49.44,1.76-.25.26-.55-.14-1.17-.66-1.37-1.94-.88-4.09-1.2-6.2-1.19,1.99-.99,4.13-1.64,6.27-2.23.58-.18.99-.64,1.42-1.04-3.09-.03-6.19.02-9.28-.03-.43-.94-1-1.82-1.46-2.75,3.98.02,7.97.05,11.95.03.04-.36.05-.72.05-1.08-4.23,0-8.45,0-12.68,0-.62-.98-1.23-2.01-2.15-2.74-.71.05-1.42-.03-2.12.05M19.93,33.61c.1.18.21.37.31.56,3.46.02,6.92.02,10.38,0,.05-.19.1-.37.15-.56-3.61,0-7.22,0-10.83,0M20.55,34.7c.08.19.16.39.24.58,3.08,0,6.17,0,9.25,0,.11-.19.22-.39.32-.59-3.27,0-6.54,0-9.81,0M25.99,29.62c0,.15-.02.31-.03.46.57-.15,1.17-.2,1.76-.11.17.15.38.24.61.24,0-.11-.01-.34-.01-.46-.72-.37-1.56-.35-2.32-.13"/>
  <path class="cls-4" d="M24.45,9.71c.25-1.07,1.12-2.1,2.3-2.12.66,0,1.35-.08,1.96.2.64.28,1.08.89,1.28,1.54,1.14,3.9,2.29,7.81,3.43,11.72.11.36.23.72.29,1.09-.81-.04-1.62,0-2.43-.02-.52,0-1.03-.34-1.18-.85-.95-3.21-1.87-6.44-2.84-9.65-.42,1.61-.96,3.2-1.38,4.82.58-.01,1.22-.1,1.71.29.78.59.99,1.64,1.05,2.56-1.21.01-2.42,0-3.63,0-.15.64-.36,1.27-.54,1.9-.08.29-.28.52-.47.74-.23.1-.47.2-.73.19-.81.01-1.62-.02-2.43.02,1.18-4.15,2.42-8.28,3.62-12.42M11.23,8.19c.57-.35,1.24-.53,1.91-.53,1.28,0,2.56,0,3.84,0,.54,0,1.08-.03,1.61.06.11.21.17.43.16.66,0,3.64,0,7.29,0,10.93.29,0,.62-.04.87.14.47.32.62.94.61,1.48,0,1,0,2.01,0,3.01-.81,0-1.62.02-2.44,0-.35-.07-.62-.38-.74-.71-.1-.36-.06-.75-.06-1.12-2.39,0-4.77,0-7.16,0,0,.5.07,1.08-.29,1.48-.22.28-.59.36-.93.36-.76,0-1.52,0-2.27,0,.03-1.08-.03-2.16.04-3.24.01-.58.43-1.07.91-1.34.62-.33.87-1.03,1.14-1.63.94-2.48,1.27-5.12,1.68-7.72.1-.73.5-1.42,1.12-1.82M13.09,11.22c-.24,1.73-.49,3.46-.87,5.17-.25.99-.43,2.04-1.03,2.89,1.45-.02,2.89.02,4.34-.02-.02-2.2,0-4.39,0-6.59-.01-.53.11-1.08.42-1.51.38-.55,1-.82,1.6-1.06-1.08.05-2.17,0-3.26.03-.58.03-1.13.48-1.19,1.07M33.98,7.69c.8-.03,1.61-.01,2.41-.02.45,0,.98.09,1.24.5.29.42.13.96.15,1.43-.12,1.99-.26,3.99-.39,5.98-.07.51-.02,1.03-.19,1.52-.66.01-1.32-.01-1.97.03-.22.02-.44-.04-.66-.09-.15-.52-.13-1.06-.15-1.6-.15-2.59-.29-5.18-.43-7.77M35.71,18.15c-.61.06-1.19.43-1.49.97-.52.84-.26,2.06.56,2.61.73.55,1.84.48,2.51-.13.72-.63.88-1.8.33-2.6-.4-.63-1.18-.96-1.92-.87M20.13,26.62c.45.05.96.13,1.24.52.23.3.16.7.09,1.05-.35-.03-.77.03-1.04-.24-.38-.33-.3-.87-.29-1.32M25.72,27.1c.51-.21,1.03-.52,1.61-.44.74.1,1.24,1,.9,1.67-1.08-.3-2.3-.21-3.23.47-.49-.59-1.21-.94-1.97-1.02.33-.21.67-.4,1.05-.49.54-.14,1.12.04,1.64-.19M0,27.54c1.52.65,3.03,1.34,4.56,1.98,3.15,1.21,6.37,2.26,9.62,3.16.75.2,1.49.44,2.26.54.15.24.31.48.43.73-3.77-.85-7.49-1.94-11.08-3.36-1.82-.75-3.63-1.54-5.44-2.33-.11-.04-.23-.08-.35-.11v-.61ZM13.98,29.31c-.35.21-.31.71-.03.96.49.02.98.02,1.48.01,1.31,1.75,2.35,3.7,3.11,5.75.26.62.93.98,1.58.99,1.37.03,2.74-.01,4.11.01-2.38.59-4.69,1.6-6.61,3.14-.25.22-.55.43-.67.76-.07.36-.04.8.27,1.05.44.44,1.26.36,1.6-.16.22-.36.17-.83-.06-1.18,1.11-.09,2.23-.21,3.34-.21,1.66-.11,3.31.02,4.96.2-.22.39-.29.91.03,1.27.46.57,1.49.44,1.76-.25.26-.55-.14-1.17-.66-1.37-1.94-.88-4.09-1.2-6.2-1.19,1.99-.98,4.13-1.64,6.27-2.23.58-.18.99-.64,1.42-1.04-3.09-.03-6.19.02-9.28-.03-.43-.94-1-1.82-1.46-2.75,3.98.02,7.97.05,11.95.03.04-.36.05-.72.05-1.08-4.23,0-8.45,0-12.67,0-.62-.98-1.23-2.01-2.15-2.73-.71.05-1.42-.03-2.12.05M19.93,33.61c3.61,0,7.22,0,10.83,0-.05.19-.1.37-.15.56-3.46.03-6.92.03-10.38,0-.1-.19-.2-.37-.31-.56M20.55,34.7c3.27,0,6.54,0,9.81,0-.1.2-.21.4-.32.59-3.08-.01-6.17,0-9.25,0-.08-.19-.16-.39-.24-.58M30.09,36.26c.14-.17.28-.34.4-.52,5.31.64,10.68.68,16.02.67v.42c-1.63.08-3.26.04-4.89.05-3.85.03-7.71-.17-11.53-.62"/>
  <path class="cls-1" d="M0,28.16c.12.03.24.07.35.11,1.81.78,3.62,1.57,5.44,2.33,3.6,1.41,7.32,2.51,11.08,3.36.4.77.73,1.56,1.04,2.37.38.92,1.39,1.36,2.33,1.45-.5.16-.95.45-1.4.72-.86.52-1.73,1.07-2.35,1.87-.24.29-.18.69-.2,1.04-.08,1.18,1.45,1.95,2.42,1.38.64-.26.87-.94,1.01-1.55.9,0,1.8-.14,2.71-.11,1.25.01,2.5-.07,3.74.13.02.7.42,1.45,1.14,1.6.55.03,1.22.16,1.66-.27.39-.32.66-.79.62-1.3.05-.77-.58-1.37-1.23-1.66-.96-.39-1.96-.72-2.98-.89-.15-.03-.3-.07-.45-.09.02-.1.05-.21.07-.31l.03.28c1-.39,2.04-.64,3.05-1.01.75-.29,1.46-.73,2-1.33,3.83.46,7.68.65,11.54.62,1.63,0,3.26.03,4.89-.05v9.67H0v-18.35ZM26.14,28.9c-.25.12-.51.24-.76.36,0,.17.02.34.04.51.15.35.16.79.01,1.14-.02.11-.04.34-.06.45.38.09.76.06,1.14.04,1.05.02,2.1,0,3.15.01.14-.02.28-.06.42-.09-.07-.21-.14-.41-.21-.62-.23-.57-.6-1.11-1.15-1.4-.12-.14-.29-.2-.44-.27-.68-.26-1.43-.3-2.13-.13M25.99,29.62c0,.15-.02.31-.03.46.57-.15,1.17-.2,1.76-.11.17.15.38.24.61.24,0-.11-.01-.34-.01-.46-.72-.37-1.56-.35-2.32-.13"/>
</svg>