<?xml version="1.0" encoding="UTF-8"?>
<svg id="_Слой_1" data-name="Слой 1" xmlns="http://www.w3.org/2000/svg" viewBox="0 0 106 13.9">
  <defs>
    <style>
      .cls-1 {
        fill: #1f8635;
      }

      .cls-1, .cls-2, .cls-3, .cls-4 {
        fill-rule: evenodd;
      }

      .cls-2 {
        fill: #a8e542;
      }

      .cls-3 {
        fill: #015929;
      }

      .cls-4 {
        fill: #61ae2c;
      }
    </style>
  </defs>
  <path class="cls-4" d="M4.57.44C4.98.12,5.52-.04,6.04,0c.67.05,1.3.43,1.66,1,.4.62.46,1.45.16,2.13-.13.3-.34.56-.58.79-.47.47-.93.95-1.4,1.42-.52-.52-1.03-1.05-1.55-1.57-.4-.41-.63-.99-.63-1.57,0-.68.32-1.35.87-1.76"/>
  <path class="cls-3" d="M15.89.94h7.51c0,3.35,0,6.7,0,10.05-.66,0-1.33,0-1.99,0V2.82c-1.18,0-2.36,0-3.54,0,0,2.72,0,5.44,0,8.16-.66,0-1.32,0-1.98,0V.94M69.45.97c.51-.15,1.06.22,1.17.72.13.5-.18,1.07-.69,1.19-.51.15-1.1-.21-1.2-.73-.13-.5.21-1.06.72-1.18M72.2.96c.55-.14,1.13.31,1.17.86.07.53-.36,1.06-.9,1.08-.55.05-1.06-.44-1.04-.99,0-.44.33-.86.77-.96M26.19,4.14c1.34-.92,3.3-.9,4.54.19,1.06.91,1.48,2.42,1.23,3.77-1.81.01-3.61,0-5.42,0,.13.47.43.9.88,1.12.89.44,2.12.32,2.77-.48.49.3.99.58,1.48.88-.42.62-1.05,1.11-1.76,1.35-1.37.44-3.01.22-4.1-.76-.87-.77-1.27-1.97-1.2-3.11.04-1.16.61-2.31,1.58-2.97M27.44,5.39c-.49.24-.8.74-.92,1.26,1.22,0,2.44,0,3.66,0-.1-.43-.31-.84-.66-1.11-.58-.44-1.42-.46-2.07-.15M35.18,4.54c.85-1.14,2.55-1.34,3.77-.73,1.26.61,2.02,1.99,2.06,3.36.07,1.42-.64,2.9-1.91,3.59-1.24.7-3.03.54-3.92-.65,0,1.26,0,2.51,0,3.77-.62,0-1.24,0-1.86,0,0-3.4,0-6.81,0-10.21.62,0,1.24,0,1.86,0,0,.29,0,.57,0,.86M36.9,5.29c-.64.07-1.24.48-1.51,1.08-.34.75-.27,1.7.27,2.34.66.81,1.98.89,2.78.24.95-.77.97-2.41.04-3.21-.43-.37-1.02-.52-1.58-.45M43.71,4.01c1.3-.77,3.09-.73,4.27.24,1.11.9,1.58,2.45,1.32,3.83-1.8.04-3.61,0-5.42.02.14.51.49.97.99,1.17.87.37,2.03.25,2.65-.53.5.29,1,.58,1.49.88-.42.62-1.05,1.11-1.76,1.35-1.4.45-3.08.21-4.17-.82-.96-.9-1.3-2.31-1.07-3.58.17-1.04.79-2.01,1.71-2.55M44.78,5.38c-.49.24-.81.74-.93,1.26,1.22,0,2.44,0,3.66,0-.1-.41-.29-.81-.62-1.08-.58-.48-1.44-.5-2.1-.18M60.58,4.54c.86-1.15,2.57-1.34,3.79-.71,1.25.62,2.01,1.99,2.03,3.36.06,1.41-.63,2.87-1.88,3.57-1.24.72-3.05.56-3.95-.63,0,1.26,0,2.51,0,3.77-.62,0-1.24,0-1.86,0,0-3.41,0-6.81,0-10.22.62,0,1.24,0,1.85,0,0,.29,0,.57,0,.86M62.12,5.32c-.3.06-.58.19-.82.39-.96.79-.96,2.46,0,3.25.8.65,2.12.56,2.78-.24.71-.85.63-2.29-.24-3-.47-.39-1.13-.51-1.72-.39M69.39,3.86c1.3-.63,2.99-.51,4.09.48,1.05.91,1.46,2.42,1.22,3.77-1.8,0-3.61,0-5.41,0,.14.52.5.97,1,1.18.87.36,2.02.24,2.64-.54.5.29,1,.58,1.49.88-.43.63-1.06,1.12-1.79,1.35-1.42.45-3.13.19-4.2-.89-1.01-1-1.29-2.56-.92-3.9.26-1,.96-1.88,1.89-2.32M70.17,5.39c-.49.24-.79.74-.91,1.25,1.22,0,2.44,0,3.66,0-.1-.46-.34-.9-.74-1.16-.59-.4-1.39-.4-2.01-.09M76.62,4.68c.82-.92,2.13-1.35,3.35-1.17,1.11.15,2.15.84,2.67,1.85-.53.32-1.06.64-1.6.95-.48-1.02-1.93-1.27-2.79-.6-1.01.74-1.02,2.45-.03,3.21.87.69,2.35.46,2.85-.57.53.32,1.07.62,1.61.94-.61,1.12-1.83,1.86-3.1,1.89-1.26.07-2.55-.53-3.26-1.59-1.01-1.46-.9-3.6.31-4.91M93.49,3.55c1.32-.27,2.78.22,3.64,1.26,1.04,1.21,1.2,3.08.41,4.46-.6,1.09-1.77,1.82-3.01,1.9-1.18.1-2.39-.38-3.16-1.29-1.02-1.17-1.21-2.95-.52-4.33.5-1.03,1.51-1.8,2.64-2.01M93.66,5.4c-.33.1-.64.29-.87.56-.72.82-.65,2.22.19,2.93.72.63,1.91.6,2.6-.07.86-.8.81-2.37-.13-3.09-.49-.39-1.18-.5-1.79-.33M50.66,3.68c.62,0,1.24,0,1.86,0,0,.99,0,1.97,0,2.96.21,0,.42,0,.63,0,.69-.99,1.38-1.98,2.07-2.96.74,0,1.48,0,2.22,0-.89,1.2-1.78,2.4-2.66,3.61.92,1.23,1.83,2.46,2.75,3.69-.72-.02-1.46.04-2.17-.02-.69-.95-1.37-1.9-2.06-2.85-.26,0-.51,0-.77,0,0,.96,0,1.92,0,2.88-.62,0-1.24,0-1.86,0,0-2.43,0-4.87,0-7.3M83.48,3.68c2.12,0,4.25-.01,6.37,0-.02.6,0,1.2,0,1.8-.75,0-1.5,0-2.25,0,0,1.83,0,3.66,0,5.49-.62,0-1.24,0-1.85,0,0-1.83,0-3.66,0-5.48-.75,0-1.5,0-2.25,0,0-.6,0-1.21,0-1.81M99.14,3.68c.62,0,1.24,0,1.86,0,0,.99,0,1.97,0,2.96.21,0,.42,0,.63,0,.69-.99,1.38-1.99,2.08-2.97.73,0,1.47,0,2.21,0-.89,1.2-1.77,2.4-2.66,3.6.91,1.24,1.83,2.46,2.75,3.7-.72-.02-1.46.03-2.17-.02-.69-.95-1.37-1.9-2.06-2.85-.26,0-.52,0-.77,0,0,.96,0,1.92,0,2.88-.62,0-1.24,0-1.86,0,0-2.43,0-4.87,0-7.3M4.34,8.16c.51-.52,1.02-1.04,1.53-1.56.55.56,1.11,1.11,1.65,1.68.71.8.71,2.1,0,2.9-.64.78-1.83,1-2.7.49-.63-.35-1.06-1.02-1.11-1.74-.06-.65.18-1.31.64-1.77"/>
  <path class="cls-2" d="M.37,4.74c.38-.59,1.06-.96,1.76-.97.58-.02,1.16.22,1.57.63.52.53,1.04,1.05,1.55,1.58-.55.56-1.1,1.13-1.66,1.68-.79.73-2.11.71-2.89-.04-.79-.71-.94-2.01-.34-2.88"/>
  <path class="cls-1" d="M8.06,4.39c.44-.45,1.09-.68,1.72-.62.72.06,1.38.51,1.72,1.15.52.94.23,2.24-.66,2.86-.8.6-2.01.53-2.72-.16-.54-.54-1.08-1.1-1.62-1.64.52-.53,1.04-1.06,1.56-1.59"/>
</svg>