<?xml version="1.0" encoding="UTF-8"?>
<svg id="_Слой_1" data-name="Слой 1" xmlns="http://www.w3.org/2000/svg" xmlns:xlink="http://www.w3.org/1999/xlink" viewBox="0 0 78.41 14.75">
  <defs>
    <style>
      .cls-1 {
        fill: none;
      }

      .cls-2 {
        fill: #e30613;
      }

      .cls-3 {
        clip-path: url(#clippath);
      }
    </style>
    <clipPath id="clippath">
      <rect class="cls-1" x="0" width="78.41" height="14.75"/>
    </clipPath>
  </defs>
  <g class="cls-3">
    <polygon class="cls-2" points="41.87 12.28 41.87 2.47 47.96 2.47 47.96 4.75 44.4 4.75 44.4 12.28 41.87 12.28"/>
    <polygon class="cls-2" points="55.62 12.28 55.62 8.44 51.85 8.44 51.85 12.28 49.3 12.28 49.3 2.47 51.85 2.47 51.85 6.13 55.62 6.13 55.62 2.47 58.16 2.47 58.16 12.28 55.62 12.28"/>
    <polygon class="cls-2" points="72.89 12.28 72.89 4.75 69.93 4.75 69.93 2.47 78.41 2.47 78.41 4.75 75.43 4.75 75.43 12.28 72.89 12.28"/>
    <polygon class="cls-2" points="66.19 12.28 66.19 6.69 62.15 12.28 60.02 12.28 60.02 2.48 62.56 2.48 62.56 8 66.54 2.48 68.73 2.48 68.73 12.28 66.19 12.28"/>
    <polygon class="cls-2" points="27.27 12.28 27.27 6.45 24.74 9.53 22.2 6.45 22.2 12.28 19.66 12.28 19.66 2.47 22.17 2.47 24.74 5.85 27.31 2.47 29.81 2.47 29.81 12.28 27.27 12.28"/>
    <path class="cls-2" d="M34.63,8.83h2.36l-1.18-3.07-1.18,3.07ZM38.32,12.28l-.53-1.37h-3.95l-.53,1.37h-2.55l3.91-9.8h2.35l3.91,9.8h-2.6Z"/>
    <path class="cls-2" d="M0,4.47c0-1.18.47-2.32,1.29-3.16S3.23,0,4.4,0h10.15v2.27H4.4c-.57,0-1.12.24-1.52.65-.4.41-.63.97-.64,1.55v3.81c-.06.49-.26.95-.59,1.31-.33.36-.77.6-1.24.67l-.4.06v-5.85Z"/>
    <path class="cls-2" d="M0,14.75v-2.27h10.15c.57,0,1.12-.24,1.53-.65.4-.41.63-.97.64-1.55v-3.62c0-.52.19-1.03.52-1.43.34-.4.8-.66,1.31-.74l.4-.06v5.85c0,1.18-.47,2.32-1.29,3.16-.82.84-1.94,1.31-3.11,1.31H0Z"/>
    <polygon class="cls-2" points="8.6 10.33 8.6 7.39 7.27 9 5.95 7.39 5.95 10.33 4.2 10.33 4.2 4.55 5.86 4.55 7.27 6.41 8.69 4.55 10.35 4.55 10.35 10.33 8.6 10.33"/>
  </g>
</svg>