<?xml version="1.0" encoding="UTF-8"?>
<svg id="_Слой_1" data-name="Слой 1" xmlns="http://www.w3.org/2000/svg" viewBox="0 0 48.32 41.71">
  <defs>
    <style>
      .cls-1 {
        fill: #100f0d;
      }

      .cls-1, .cls-2, .cls-3 {
        fill-rule: evenodd;
      }

      .cls-2 {
        fill: #ffae00;
      }

      .cls-3 {
        fill: #22993c;
      }
    </style>
  </defs>
  <path class="cls-3" d="M10.87,19.81c2.17,5.09,7.22,8.66,13.13,8.66-2.19-5.09-7.24-8.66-13.13-8.66"/>
  <path class="cls-2" d="M24,0c-5.91,0-10.69,4.77-10.69,10.68s4.78,10.68,10.69,10.68,10.69-4.77,10.69-10.68S29.89,0,24,0M24,16.02c-2.96,0-5.35-2.39-5.35-5.34s2.39-5.34,5.35-5.34,5.35,2.39,5.35,5.34-2.39,5.34-5.35,5.34"/>
  <path class="cls-3" d="M24,28.47c4.34,0,8.06-2.56,9.73-6.27-4.34.02-8.06,2.58-9.73,6.27"/>
  <path class="cls-1" d="M15.2,39.66c-1.2,0-2.37-.48-2.6-1.96,3.32,1.01,6.31-.07,6.31-2.44,0-1.44-1.13-2.72-3.87-2.72-2.17,0-4.72,1.29-4.72,4.58s2.65,4.58,4.85,4.58c1.57,0,2.71-.49,3.54-1.4l-1.38-1.42c-.5.47-1.33.78-2.12.78M15.06,34.55c.75,0,1.42.29,1.42.97,0,.91-1.52,1.42-3.83.75.3-1.24,1.28-1.72,2.42-1.72M1.81,32.78l-.06,3.25c-.01,1.32-.06,1.97-.26,2.71-.17.71-.51.92-1.04.92-.17,0-.33-.01-.46-.06v1.85c.17.1.46.15.84.15,1.58-.05,2.34-.79,2.71-2.12.27-.95.32-1.69.37-2.78l.05-1.76h2.79v6.51h2.24v-8.67H1.81ZM47.74,39.7c-.48,0-.71-.27-.71-.8v-6.12h-2.23v.91c-.67-.78-1.58-1.16-2.74-1.16s-2.16.46-2.98,1.33c-.81.89-1.23,1.96-1.23,3.24s.42,2.38,1.23,3.26c.84.89,1.82,1.32,2.98,1.32,1.22,0,2.16-.42,2.82-1.27l.04-.05c.23.81.81,1.32,1.98,1.32.55,0,1.04-.1,1.42-.28v-1.85c-.16.1-.36.15-.58.15M44.19,38.87c-.46.46-1.02.68-1.71.68s-1.27-.22-1.71-.68c-.46-.47-.68-1.06-.68-1.77s.22-1.31.68-1.75c.46-.47,1.02-.69,1.71-.69s1.27.22,1.71.69c.47.44.69,1.03.69,1.75s-.22,1.3-.69,1.77M29.68,32.78v2.15h2.79v6.51h2.24v-6.51h2.75v-2.15h-7.78ZM26.39,32.78v3.19h-3.91v-3.19h-2.24v8.67h2.24v-3.37h3.91v3.37h2.24v-8.67h-2.24Z"/>
</svg>