<?xml version="1.0" encoding="UTF-8"?>
<svg id="_Слой_1" data-name="Слой 1" xmlns="http://www.w3.org/2000/svg" viewBox="0 0 44 45.67">
  <defs>
    <style>
      .cls-1 {
        fill: #fff;
      }

      .cls-2 {
        fill: #eb2316;
      }

      .cls-3 {
        fill: #008f32;
      }
    </style>
  </defs>
  <polygon class="cls-2" points="0 43.97 0 38.33 4.58 38.33 4.58 43.97 3.47 43.97 3.47 39.41 1.12 39.41 1.12 43.97 0 43.97"/>
  <path class="cls-2" d="M8.9,39.86v4.12h-1.04v-1.43c-.2.04-.42.09-.67.09l-.86,1.34h-1.16l1.02-1.48c-.54-.23-.82-.62-.82-1.23,0-.84.61-1.41,1.82-1.41h1.71ZM7.86,40.72h-.64c-.53,0-.79.19-.79.56s.26.54.77.54c.23,0,.45-.01.66-.06v-1.05Z"/>
  <path class="cls-2" d="M15.91,40.21c.32.31.47.73.47,1.28v2.49h-1.07v-2.29c0-.62-.33-.96-.83-.96-.54,0-.91.38-.91.99v2.26h-1.07v-2.28c0-.61-.32-.97-.83-.97s-.9.38-.9.99v2.26h-1.07v-4.12h1.05v.59c.23-.43.72-.71,1.25-.7.52,0,.99.25,1.21.73.3-.45.86-.73,1.48-.73.5,0,.9.15,1.21.46"/>
  <path class="cls-2" d="M25.56,40.38c.39.42.58.93.58,1.53s-.2,1.12-.58,1.53c-.39.42-.87.62-1.45.62-.51,0-.97-.22-1.29-.61v2.21h-1.07v-5.81h1.06v.54c.34-.42.79-.64,1.31-.64.58,0,1.07.21,1.46.63M24.75,42.76c.21-.23.32-.51.32-.84s-.1-.61-.32-.84c-.22-.23-.48-.34-.83-.34s-.61.12-.82.34c-.21.23-.32.51-.32.84s.11.61.32.84c.21.23.48.34.82.34.34,0,.61-.11.83-.34"/>
  <path class="cls-2" d="M27.15,40.38c.42-.42.95-.63,1.59-.63s1.17.21,1.59.63c.42.42.62.93.62,1.54s-.21,1.12-.62,1.54c-.42.41-.95.62-1.59.62s-1.17-.21-1.59-.62c-.42-.42-.62-.93-.62-1.54s.21-1.12.62-1.54M28.73,43.09c.32,0,.59-.11.81-.34.22-.23.33-.51.33-.84s-.11-.6-.33-.83c-.22-.23-.48-.34-.81-.34s-.6.11-.82.34c-.22.23-.33.51-.33.83s.11.6.33.84c.22.22.49.34.82.34"/>
  <path class="cls-2" d="M33.95,39.86h1.07v4.12h-1.07v-1.38c-.31.18-.65.27-.92.27-.49,0-.85-.09-1.18-.31-.32-.23-.51-.67-.51-1.31v-1.38h1.06v1.31c0,.48.25.73.75.73.28,0,.52-.04.79-.15v-1.88h0Z"/>
  <polygon class="cls-2" points="38.54 43.97 36.9 42.07 36.9 43.97 35.84 43.97 35.84 39.86 36.9 39.86 36.9 41.49 38.4 39.86 39.75 39.86 37.91 41.77 39.86 43.97 38.54 43.97"/>
  <path class="cls-2" d="M42.98,39.86h1.01v4.12h-1.01v-.55c-.36.43-.79.64-1.32.64-.59,0-1.08-.2-1.47-.62-.39-.42-.58-.94-.58-1.56s.2-1.13.58-1.53c.39-.41.88-.61,1.46-.61.52,0,.97.23,1.32.64v-.54h0ZM42.67,41.07c-.22-.23-.49-.35-.83-.35s-.61.11-.83.35c-.21.23-.32.51-.32.84s.11.61.32.85.49.35.83.35.61-.11.83-.35c.22-.23.33-.51.33-.85s-.11-.6-.33-.84"/>
  <path class="cls-2" d="M21.12,42.29h-3.1c.15.58.55.88,1.2.88.45,0,.95-.16,1.32-.47l.43.68c-.52.49-1.11.69-1.8.69-.73,0-1.28-.21-1.67-.62-.39-.42-.58-.93-.58-1.53s.2-1.14.6-1.55c.4-.41.92-.61,1.55-.61.6,0,1.1.19,1.48.56.39.37.58.87.58,1.51,0,.14-.02.3-.04.47M18.34,38.21c.36,0,.63.28.63.62,0,.37-.27.64-.63.64s-.63-.27-.63-.64c0-.34.28-.62.63-.62M18.03,41.5h2.1c-.1-.53-.48-.86-1.03-.86s-.94.33-1.07.86M19.34,38.82c0-.36.28-.62.64-.62s.63.28.63.62c0,.37-.27.64-.63.64s-.64-.27-.64-.64"/>
  <path class="cls-1" d="M21.99,0C12.49,0,4.77,7.73,4.77,17.22s7.73,17.22,17.22,17.22,17.22-7.73,17.22-17.22S31.48,0,21.99,0"/>
  <path class="cls-2" d="M31.43,5.42c-2.11,5.47-7.7,4.76-11.64,4.9l-.96,3.73c4.86-3.96,11.29-.03,10.6,5.95-.46,4.03-3.33,6.66-6.37,7.42-3.31.83-6.98-.41-8.62-3.78-.17-.36-.48-1.07-.59-1.45l3.49-.89c.06.2.17.4.27.57,2.34,3.77,7.07,1.88,7.61-2.03.54-3.98-5.04-6.1-7.58-1.45l-3.1-1.32-.06-.02,1.15-4.63c.18-.82.73-2.97.8-3.18.1-.32.12-.43.23-.72,1.99-5.21,5.91-5.74,9.4-5.74.14,0,.28,0,.42,0-1.42-.44-2.93-.68-4.5-.68-8.35,0-15.12,6.77-15.12,15.12s6.77,15.12,15.12,15.12,15.12-6.77,15.12-15.12c0-4.77-2.22-9.03-5.67-11.8"/>
  <path class="cls-3" d="M30.06,4.4c-.59,1.82-1.61,2.96-3.19,3.58-1.64.64-3.64.66-5.58.67-1.04,0-2.04.02-2.95.13,1.64-3.97,4.59-4.36,7.74-4.36.44,0,.88,0,1.3.02.43,0,.83.02,1.22.02.57,0,1.04-.02,1.46-.06"/>
</svg>